<?xml version="1.0" encoding="utf-8"?>
<!-- Generator: Adobe Illustrator 21.0.0, SVG Export Plug-In . SVG Version: 6.00 Build 0)  -->
<svg version="1.1" id="Ebene_1" xmlns="http://www.w3.org/2000/svg" xmlns:xlink="http://www.w3.org/1999/xlink" x="0px" y="0px"
	 viewBox="0 0 2543 841.9" style="enable-background:new 0 0 2543 841.9;" xml:space="preserve">
<style type="text/css">
	.st0{fill:#5FC4E1;}
	.st1{fill:#E31013;}
	.st2{fill:#A2C62C;}
	.st3{fill:#FFD500;}
	.st4{fill:none;stroke:#FFD500;stroke-width:1.397;stroke-linecap:round;stroke-linejoin:round;stroke-miterlimit:10;}
</style>
<g>
	<path class="st0" d="M1917.1,101.2c-0.8,0-1.7,0-2.5-0.1c-1.9-0.1-3.9-0.3-5.7-1.2c-2.3-1.2-4-3.6-4.3-6.2
		c-0.2-1.4,0.1-2.8,0.6-4.1c-1.8-0.2-3.1-0.8-3.8-2c-0.6-1.1-0.6-2.5,0.1-3.9c0.8-1.7,2.5-2.9,4.4-3.2c1.9-0.3,3.8,0.3,5.2,1.7
		c0.3,0.3,0.3,0.7,0,1c-0.3,0.3-0.7,0.3-1,0c-1-1-2.5-1.5-4-1.3c-1.4,0.2-2.7,1.2-3.4,2.5c-0.4,0.7-0.6,1.8-0.1,2.6
		c0.5,0.8,1.6,1.3,3.3,1.3c0.4-0.6,0.8-1.1,1.3-1.5c0.1-0.1,0.5-0.4,0.9-0.4c0,0,0,0,0,0c0.3,0,0.6,0.1,0.8,0.4
		c0.3,0.3,0.4,0.7,0.3,1.1c-0.1,1-1.1,1.7-2.6,1.8c-0.6,1.2-0.9,2.6-0.8,3.9c0.2,2.1,1.6,4.1,3.5,5.1c1.6,0.8,3.4,1,5.2,1.1
		c2.8,0.2,5.8,0.2,8.4-0.9c1.5-0.6,3-1.8,3.9-3.4c-0.1-1.1,0.1-2.2,0.8-3.1c0.2-0.2,0.5-0.3,0.8-0.2c0.3,0.1,0.5,0.4,0.5,0.7
		c0,1.1-0.2,2-0.6,2.9c0.1,0.7,0.5,1.3,0.9,1.8c1,1.1,2.6,1.8,4.6,2c1.3,0.1,3.2,0.1,4.7-1c1.1-0.8,1.8-2.1,1.7-3.3
		c-0.1-0.2-0.1-0.5-0.2-0.8c0-0.4,0.2-0.7,0.5-0.8c0.3-0.1,0.7,0.1,0.8,0.5c0.1,0.2,0.1,0.5,0.2,0.7c0.2,0.5,0.5,0.9,1,1.3
		c0.8,0.6,1.9,0.9,2.9,0.7c1.7-0.3,3.3-1.7,4.2-3.8c0.8-1.8,1.1-4,0.7-6c-0.3-1.7-1.1-3.2-2.2-4.2c-1.2-1.1-2.8-1.6-4.3-1.4
		c-1.3,0.2-2.4,1.2-2.9,2.3c-0.1,0.2-0.1,0.5-0.2,0.7c-0.1,0.3-0.5,0.5-0.8,0.5c-0.4-0.1-0.6-0.4-0.5-0.8c0-0.3,0.1-0.5,0.2-0.8
		c0.5-2.5-0.5-5.3-2.5-6.8c-2.3-1.6-5.7-1.3-7.5,0.7c-1.5,1.6-1.9,3.9-2.3,6.5c-0.1,0.4-0.4,0.7-0.8,0.6c-0.4,0-0.6-0.4-0.6-0.8
		c0.2-2-0.6-4.1-1.5-6.1c-0.9-1.9-1.9-3.8-3.4-5.3c-1.6-1.5-3.7-2.2-5.4-1.9c-2.7,0.5-4.4,3.3-4.7,5.8c-0.2,1.9,0.5,4.2,2.2,4.9
		c0.4,0.1,0.5,0.5,0.4,0.9c-0.1,0.4-0.5,0.5-0.9,0.4c-2.5-1-3.4-4-3.1-6.3c0.3-3,2.4-6.4,5.8-7c2.2-0.4,4.7,0.4,6.6,2.2
		c1.7,1.6,2.8,3.7,3.8,5.7c0.4,0.8,0.8,1.7,1.1,2.6c0.4-1.2,0.9-2.3,1.8-3.2c2.3-2.5,6.5-2.9,9.4-0.9c1.9,1.3,3,3.5,3.2,5.8
		c0.7-0.6,1.5-1,2.4-1.1c1.9-0.3,4,0.3,5.5,1.7c1.3,1.2,2.2,3,2.6,5c0.4,2.3,0.2,4.7-0.8,6.8c-1.1,2.5-3.1,4.2-5.3,4.6
		c-1.4,0.2-2.9-0.1-4-1c-0.1-0.1-0.3-0.2-0.4-0.3c-0.3,1-1,2-2,2.7c-1.8,1.3-4.1,1.4-5.7,1.2c-1.7-0.2-3.9-0.7-5.5-2.5
		c-0.3-0.3-0.6-0.8-0.8-1.2c-1,1.3-2.4,2.3-3.8,2.9C1921.6,100.9,1919.3,101.2,1917.1,101.2z"/>
</g>
<g>
	<path class="st0" d="M105.5,79.1c-0.8,0-1.7,0-2.5-0.1c-1.9-0.1-3.9-0.3-5.7-1.2c-2.3-1.2-4-3.6-4.3-6.2c-0.2-1.4,0.1-2.8,0.6-4.1
		c-1.8-0.2-3.1-0.8-3.8-2c-0.6-1.1-0.6-2.5,0.1-3.9c0.8-1.7,2.5-2.9,4.4-3.2c1.9-0.3,3.8,0.3,5.2,1.7c0.3,0.3,0.3,0.7,0,1
		c-0.3,0.3-0.7,0.3-1,0c-1-1-2.5-1.5-4-1.3c-1.4,0.2-2.7,1.2-3.4,2.5c-0.4,0.7-0.6,1.8-0.1,2.6c0.5,0.8,1.6,1.3,3.3,1.3
		c0.4-0.6,0.8-1.1,1.3-1.5c0.1-0.1,0.5-0.4,0.9-0.4c0,0,0,0,0,0c0.3,0,0.6,0.1,0.8,0.4c0.3,0.3,0.4,0.7,0.3,1.1
		c-0.1,1-1.1,1.7-2.6,1.8c-0.6,1.2-0.9,2.6-0.8,3.9c0.2,2.1,1.6,4.1,3.5,5.1c1.6,0.8,3.4,1,5.2,1.1c2.8,0.2,5.8,0.2,8.4-0.9
		c1.5-0.6,3-1.8,3.9-3.4c-0.1-1.1,0.1-2.2,0.8-3.1c0.2-0.2,0.5-0.3,0.8-0.2c0.3,0.1,0.5,0.4,0.5,0.7c0,1.1-0.2,2-0.6,2.9
		c0.1,0.7,0.5,1.3,0.9,1.8c1,1.1,2.6,1.8,4.6,2c1.3,0.1,3.2,0.1,4.7-1c1.1-0.8,1.8-2.1,1.7-3.3c-0.1-0.2-0.1-0.5-0.2-0.8
		c0-0.4,0.2-0.7,0.5-0.8c0.3-0.1,0.7,0.1,0.8,0.5c0.1,0.2,0.1,0.5,0.2,0.7c0.2,0.5,0.5,0.9,1,1.3c0.8,0.6,1.9,0.9,2.9,0.7
		c1.7-0.3,3.3-1.7,4.2-3.8c0.8-1.8,1.1-4,0.7-6c-0.3-1.7-1.1-3.2-2.2-4.2c-1.2-1.1-2.8-1.6-4.3-1.4c-1.3,0.2-2.4,1.2-2.9,2.3
		c-0.1,0.2-0.1,0.5-0.2,0.7c-0.1,0.3-0.5,0.5-0.8,0.5c-0.4-0.1-0.6-0.4-0.5-0.8c0-0.3,0.1-0.5,0.2-0.8c0.5-2.5-0.5-5.3-2.5-6.8
		c-2.3-1.6-5.7-1.3-7.5,0.7c-1.5,1.6-1.9,3.9-2.3,6.5c-0.1,0.4-0.4,0.7-0.8,0.6c-0.4,0-0.6-0.4-0.6-0.8c0.2-2-0.6-4.1-1.5-6.1
		c-0.9-1.9-1.9-3.8-3.4-5.3c-1.6-1.5-3.7-2.2-5.4-1.9c-2.7,0.5-4.4,3.3-4.7,5.8c-0.2,1.9,0.5,4.2,2.2,4.9c0.4,0.1,0.5,0.5,0.4,0.9
		c-0.1,0.4-0.5,0.5-0.9,0.4c-2.5-1-3.4-4-3.1-6.3c0.3-3,2.4-6.4,5.8-7c2.2-0.4,4.7,0.4,6.6,2.2c1.7,1.6,2.8,3.7,3.8,5.7
		c0.4,0.8,0.8,1.7,1.1,2.6c0.4-1.2,0.9-2.3,1.8-3.2c2.3-2.5,6.5-2.9,9.4-0.9c1.9,1.3,3,3.5,3.2,5.8c0.7-0.6,1.5-1,2.4-1.1
		c1.9-0.3,4,0.3,5.5,1.7c1.3,1.2,2.2,3,2.6,5c0.4,2.3,0.2,4.7-0.8,6.8c-1.1,2.5-3.1,4.2-5.3,4.6c-1.4,0.2-2.9-0.1-4-1
		c-0.1-0.1-0.3-0.2-0.4-0.3c-0.3,1-1,2-2,2.7c-1.8,1.3-4.1,1.4-5.7,1.2c-1.7-0.2-3.9-0.7-5.5-2.5c-0.3-0.3-0.6-0.8-0.8-1.2
		c-1,1.3-2.4,2.3-3.8,2.9C110,78.9,107.7,79.1,105.5,79.1z"/>
</g>
<g>
	<g>
		<path class="st1" d="M1952.3,130.1c-0.2,0-0.4,0-0.5-0.1c-0.3-0.1-0.5-0.4-0.5-0.7c-0.1-0.3,0-0.7,0.4-1.1
			c0.5-0.5,1.2-0.8,1.9-0.9c0.4,0,0.7,0.2,0.8,0.6c0,0.4-0.2,0.7-0.6,0.8c0,0.2,0,0.4-0.1,0.6c-0.1,0.2-0.4,0.6-0.8,0.8
			C1952.6,130.1,1952.4,130.1,1952.3,130.1z"/>
	</g>
	<g>
		<path class="st2" d="M1960.3,147c-0.5,0-0.8,0-0.9,0c-0.4,0-0.7-0.3-0.7-0.7c0-0.4,0.3-0.7,0.7-0.7c0,0,0,0,0,0c0.3,0,1.7,0,2.7,0
			l1.2,0c7.5,0.1,13.4-1.4,17.7-4.4l-7.1,0.1c-0.2,0-0.4-0.1-0.5-0.2c-0.1-0.1-0.2-0.3-0.2-0.5c0.2-6.1-7.1-12.1-14.3-14.3
			c-5.5-1.7-9.8-1-11.6,1.9c-0.6,0.9-0.6,1.6-0.6,2.4c0,0.4,0,0.9-0.2,1.4c0.1,0.1,0.1,0.2,0.1,0.2c0.1,0.3,0.1,0.5-0.1,0.8
			c0,0,0,0,0,0c0.1,0.2,0.2,0.4,0.1,0.6c-0.8,4,2,7.8,5,9.6c0.3,0.2,0.4,0.3,0.5,0.4l0.4,0.1c0.4,0.1,0.6,0.5,0.4,0.9
			s-0.5,0.6-0.9,0.4l-0.3-0.1c-0.3-0.1-0.5-0.2-0.6-0.4c0,0.1-0.1,0-0.2-0.1c-3.9-2.3-6.2-6.5-5.7-10.4c-0.4-0.1-0.9-0.4-0.9-0.9
			c0-0.5,0.3-0.9,0.7-1.1c0.2-0.5,0.2-1,0.2-1.5c0-0.8,0.1-1.8,0.9-3.1c2.2-3.4,7.1-4.3,13.2-2.4c7.3,2.3,15,8.2,15.3,15l8.5-0.1
			c0.3,0,0.6,0.2,0.7,0.4c0.1,0.3,0,0.6-0.2,0.8c-4.6,4-11.5,6-20.3,6l-1.2,0C1961.5,147,1960.8,147,1960.3,147z"/>
	</g>
	<g>
		<path class="st2" d="M1972,128.7c-1.5,0-2.9-0.2-4.3-0.4c-1.3-0.2-2.4-0.4-3.7-0.4c-0.2,0-0.4-0.1-0.6-0.3
			c-0.1-0.2-0.1-0.4-0.1-0.6c1.9-4.7,7.1-8.6,11.2-11.8c0.8-0.6,1.6-1.2,2.3-1.8l0,0l0.4,0.5l-0.4-0.6c1.8-1.4,3.6-2.9,5.6-4.2
			c3-1.9,5.9-3,8.7-3.2c3.4-0.3,6.7,0.7,8.9,2.8c0.2,0.2,0.3,0.5,0.2,0.8c-0.1,0.3-0.4,0.5-0.7,0.4l-6.4-0.3c1,1.1,1.6,2.5,1.5,4
			c0,0.2-0.1,0.4-0.3,0.5c-0.2,0.1-0.4,0.1-0.6,0.1l-2.8-1c1.2,2,2.1,4.1,2.7,6.3c0.1,0.3,0,0.6-0.2,0.7c-0.2,0.2-0.5,0.2-0.8,0.1
			c-2.2-1.2-4.5-2.2-6.8-3.1c1.6,1.7,3.6,3,5.5,4.3c0.3,0.2,0.4,0.5,0.3,0.8c-0.1,0.3-0.3,0.5-0.7,0.5c-4.3-0.1-8.6-0.4-12.9-1
			c0.8,0.7,1.7,1.4,2.4,2.1c0.2,0.2,0.3,0.5,0.2,0.7c-0.1,0.3-0.3,0.4-0.6,0.5c-2.6,0.2-5.3,0.1-7.9-0.2c0.1,0.3,0.2,0.6,0.3,0.9
			c0.2,0.6,0.4,1.4,0.6,1.6c0.2,0.2,0.3,0.5,0.2,0.8c-0.1,0.3-0.3,0.5-0.6,0.5C1972.5,128.7,1972.3,128.7,1972,128.7z M1965.2,126.6
			c1,0.1,1.9,0.2,2.8,0.4c1.2,0.2,2.4,0.4,3.6,0.4c-0.1-0.3-0.2-0.7-0.3-1.1c-0.2-0.6-0.4-1.4-0.6-1.6c-0.2-0.2-0.3-0.5-0.2-0.8
			c0.1-0.3,0.4-0.4,0.7-0.4c2.4,0.3,4.8,0.5,7.2,0.4c-1-0.9-2.1-1.7-3.2-2.5c-0.3-0.2-0.4-0.5-0.2-0.8c0.1-0.3,0.4-0.5,0.8-0.4
			c4.3,0.7,8.7,1.2,13.1,1.4c-2-1.4-4-3.1-5.5-5.2c-0.2-0.2-0.2-0.6,0-0.8c0.2-0.2,0.5-0.3,0.8-0.3c2.7,0.8,5.4,1.9,7.9,3.2
			c-0.8-2.2-1.8-4.2-3.1-6.1c-0.2-0.2-0.2-0.6,0-0.8c0.2-0.2,0.5-0.3,0.8-0.2l3.7,1.3c-0.3-1.4-1.4-2.7-2.8-3.1
			c-0.3-0.1-0.6-0.4-0.5-0.8c0.1-0.3,0.4-0.6,0.7-0.6l6.6,0.3c-1.7-0.9-3.8-1.3-5.9-1.1c-2.5,0.2-5.2,1.2-8,3
			c-1.9,1.2-3.7,2.7-5.5,4.1l-0.5-0.5l0.4,0.5c-0.7,0.6-1.5,1.2-2.3,1.8C1971.8,119.1,1967.2,122.6,1965.2,126.6z"/>
	</g>
	<g>
		<path class="st2" d="M1958.2,146.8c-0.3,0-0.6-0.2-0.7-0.5c-0.4-1.5-1.2-2.7-2.4-3.6c-0.3-0.2-0.4-0.7-0.1-1
			c0.2-0.3,0.7-0.4,1-0.1c1.4,1.1,2.4,2.6,2.8,4.4c0.1,0.4-0.1,0.8-0.5,0.9C1958.4,146.8,1958.3,146.8,1958.2,146.8z"/>
	</g>
	<g>
		<path class="st2" d="M1950.7,177.6c0,0-0.1,0-0.1,0c-2.9-0.5-5.9-1.2-6.9-3.8c-0.4-1-0.2-2-0.1-3c0.1-0.5,0.1-1,0.1-1.5
			c-0.1-4.4,0.7-7.2,1.6-10.1c0.4-1.3,0.8-2.6,1.1-4.2c0.5-2.3,2.4-5.7,4.1-8.7l0.7-1.3c0.2-0.3,0.6-0.5,0.9-0.3
			c0.3,0.2,0.5,0.6,0.3,0.9l-0.7,1.3c-1.6,2.9-3.5,6.2-4,8.3c-0.4,1.6-0.8,3-1.2,4.3c-0.9,2.9-1.6,5.5-1.6,9.7
			c0,0.6-0.1,1.2-0.1,1.7c-0.1,0.9-0.2,1.7,0.1,2.4c0.6,1.6,2.6,2.3,4.8,2.7c-0.4-1.2-1.1-2.1-2.2-2.8c-0.3-0.2-0.4-0.6-0.3-0.9
			c0.1-0.3,0.5-0.5,0.8-0.4c1.5,0.5,3.6,0.2,5.5-0.7c-0.5-1.5-1.6-2.5-3.2-3c-0.4-0.1-0.6-0.5-0.5-0.8c0.1-0.4,0.4-0.6,0.8-0.5
			c0.8,0.1,1.4,0.2,2.1-0.1c0.7-0.2,1.3-0.9,1.3-1.3c0-0.1-0.1-0.3-0.3-0.5l-1.6-2c-0.3-0.3-0.6-0.6-0.8-1c-0.1-0.3,0-0.7,0.3-0.9
			c0.3-0.2,0.7-0.1,0.9,0.1l0.6,0.7c0.3,0.2,0.7,0.3,1.1,0.3c0.2,0,0.6-0.1,0.9-0.3c0.4-0.3,0.8-0.4,1.1-0.4
			c-0.2-0.4-0.5-0.9-1.1-1.8c-0.5-0.8-1.1-1.7-1.9-2.6c-0.5-0.2-0.8-0.6-0.8-1.2c0-0.3,0.2-0.6,0.4-0.7c0.3-0.1,0.6,0,0.8,0.2
			c0.1,0.2,0.3,0.3,0.4,0.5c0.3,0,0.8-0.1,1.1-0.5c0.8-0.8,0.8-1.8,0.8-2.4c-0.1-1.1-0.6-2.1-1.3-2.8c-0.6-0.2-1.2-0.5-1.5-1.1
			c-0.2-0.3-0.1-0.6,0.1-0.8c0.2-0.2,0.5-0.3,0.8-0.2c0.5,0.2,0.9,0.5,1.3,0.8c0.6,0.1,1.3-0.1,1.9-0.4c0.3-0.2,0.4-0.3,0.4-0.4
			c0-0.1,0-0.2,0-0.4c0-0.5-0.1-1-0.3-1.6c-0.1-0.4,0.1-0.8,0.5-0.9c0.4-0.1,0.8,0.1,0.9,0.5c0.2,0.6,0.3,1.2,0.3,1.8
			c0,0.4,0,0.7-0.2,1.1c-0.2,0.3-0.5,0.6-1,0.9c-0.5,0.3-1,0.5-1.4,0.6c0.5,0.8,0.8,1.7,0.9,2.6c0.1,0.8,0,2.3-1.2,3.5
			c-0.3,0.3-0.7,0.5-1.1,0.7c0.5,0.6,0.9,1.3,1.3,1.9c1.4,2.4,1.7,3,1.3,3.5c-0.3,0.5-0.8,0.5-1.1,0.4c-0.3,0-0.5,0-0.7,0.1
			c-0.4,0.3-0.9,0.5-1.5,0.6l0.4,0.5c0.2,0.3,0.6,0.7,0.6,1.3c0.1,1.1-1.1,2.3-2.2,2.7c-0.1,0-0.1,0-0.2,0.1c1,0.8,1.6,2,1.9,3.3
			c0.1,0.3-0.1,0.6-0.3,0.8c-1.5,0.8-3.2,1.3-4.7,1.4c0.7,0.9,1.1,2,1.3,3.2c0,0.2-0.1,0.4-0.2,0.6
			C1951,177.5,1950.8,177.6,1950.7,177.6z"/>
	</g>
	<g>
		<path class="st2" d="M1951.9,146c-0.1,0-0.2,0-0.3-0.1c-0.3-0.2-0.5-0.6-0.3-1l0.5-1c0.2-0.3,0.6-0.5,0.9-0.3
			c0.3,0.2,0.5,0.6,0.3,0.9l-0.5,1C1952.4,145.8,1952.1,146,1951.9,146z"/>
	</g>
	<g>
		<path class="st2" d="M1952.4,145c-0.1,0-0.2,0-0.3-0.1c-0.3-0.2-0.5-0.6-0.3-0.9c0.4-0.8,0.8-1.5,1.1-2.1c0.2-0.4,0.6-0.5,0.9-0.3
			c0.3,0.2,0.5,0.6,0.3,0.9c-0.3,0.6-0.7,1.4-1.1,2.2C1952.9,144.9,1952.7,145,1952.4,145z"/>
	</g>
	<g>
		<path class="st3" d="M1943.8,134.1c-1.1,0-2.3-0.4-2.8-0.6c-0.2-0.1-0.3-0.2-0.4-0.4c-0.1-0.2,0-0.4,0.1-0.6
			c0.6-0.8,1.4-1.4,2.3-1.8c0.2-0.1,0.4-0.1,0.6-0.2c0.2-0.1,0.5-0.1,0.7-0.2c-1.4-1.7-2.4-3.6-3-5.6c-0.4-1.4,0-2.1,0.4-2.5
			c0.3-0.2,0.6-0.2,0.9,0c2.1,1.7,2.9,5,3.2,7.6c0,0,0.1,0.1,0.1,0.1c0.2,0.3,0.2,0.6,0,0.9c0,0,0,0-0.1,0.1c0,0.8,0,1.4-0.1,1.9
			c-0.1,0.5-0.3,0.8-0.7,1.1C1944.7,134,1944.2,134.1,1943.8,134.1z M1942.5,132.5c0.9,0.2,1.6,0.3,1.7,0.1c0-0.3,0.1-0.6,0.1-1
			c-0.1,0-0.2,0.1-0.3,0.1c-0.2,0.1-0.3,0.1-0.5,0.2C1943.1,132.1,1942.8,132.3,1942.5,132.5z M1942.6,124.2c0.3,1,0.7,2,1.3,2.9
			C1943.5,126.1,1943.1,125.1,1942.6,124.2z"/>
	</g>
</g>
<g>
	<path class="st0" d="M1822,179.2c-0.5,0-1,0-1.4-0.1c-9.8-0.7-19.1-5.8-25-13.8c-0.6-0.8-1.1-1.6-1.6-2.6c-0.4,2-1,4-2.8,5.1
		c-1.7,1-3.9,0.8-6.5-0.5c-5.1-2.6-9-7.2-10.8-12.6c-1.8-5.4-1.3-11.5,1.3-16.6c0.1-0.1,0.2-0.2,0.3-0.3c0-0.1-0.1-0.3,0-0.4
		c0.6-3.1,2.4-5.7,4.9-7.1c2.8-1.6,6.3-1.4,8.6,0.5c2.2,1.8,3,4.7,3.4,6.7c0.2,0.8,0.3,1.6,0.4,2.5c0.5-1.5,1.3-2.9,2.1-4.2
		c1.6-2.4,3.4-3.8,5.3-4.2c2.1-0.4,4.4,0.3,6.9,2.1c3.1,2.3,5.6,5.5,7.1,9.2c0.8-4,2.7-7.4,5.3-9.6c3.4-2.8,8.2-3.5,11.7-1.6
		c1.5,0.8,2.9,2.2,4.1,4.1c1.9,3,2.9,6.4,2.9,9.8c1.6-2,3.7-3.7,6-5c0.8-0.4,1.9-0.9,3.1-1c1.7-0.1,3.5,0.6,5.2,2.1
		c3.3,2.9,5.2,7.6,5.2,12.4c0,2.9-0.7,5.4-2,7.4c-3.6,5.4-11,5.9-15.2,5.7c-3.3-0.2-7.3-0.9-10.1-3.4c0.3,2.5,0.3,4.9,0,7.4
		c-0.4,3.1-1.4,5.2-3,6.5C1825.7,179,1823.7,179.2,1822,179.2z M1794.2,158.8c0.1,0,0.1,0,0.2,0c0.3,0.1,0.6,0.4,0.5,0.8
		c-0.2,1.8,0.9,3.6,1.9,5c5.6,7.6,14.5,12.5,23.9,13.2c1.8,0.1,4.1,0.1,5.7-1.1c1.3-1,2.1-2.8,2.5-5.5c0.4-3.2,0.2-6.4-0.5-9.6
		c-0.1-0.3,0.1-0.7,0.4-0.8c0.3-0.1,0.7,0,0.9,0.3c2.1,3.6,7,4.6,10.7,4.8c3.8,0.2,10.7-0.2,13.9-5c1.1-1.7,1.7-4,1.7-6.6
		c0-4.5-1.8-8.7-4.7-11.4c-1-0.9-2.5-1.9-4.1-1.8c-0.9,0.1-1.8,0.5-2.5,0.9c-2.9,1.5-5.3,3.9-7,6.7c-0.2,0.3-0.5,0.4-0.8,0.3
		c-0.3-0.1-0.5-0.4-0.4-0.8c0.7-3.8-0.2-8-2.5-11.5c-1.1-1.7-2.3-2.9-3.6-3.6c-3-1.7-7.1-1.1-10.1,1.4c-2.6,2.1-4.3,5.6-5,9.7
		c-0.1,0.6-0.2,1.2-0.2,1.8c0.9,3.2,1,6.7,0.3,9.9c-0.1,0.3-0.3,0.6-0.7,0.5c-0.3,0-0.6-0.3-0.7-0.6c-0.3-3.2-0.6-6.5-0.3-9.7
		c-1.2-4.4-3.8-8.4-7.5-11.1c-2.1-1.6-4.1-2.2-5.8-1.9c-1.6,0.3-3.1,1.5-4.4,3.6c-1.8,2.7-2.9,5.9-3.2,9.2c0,0.4-0.3,0.7-0.8,0.6
		c-0.4,0-0.7-0.4-0.6-0.7c0.2-2.6,0-5.3-0.5-7.8c-0.6-2.9-1.5-4.7-2.9-5.8c-1.9-1.5-4.7-1.6-7-0.3c-2.1,1.2-3.6,3.5-4.2,6.2
		c0,0.2-0.2,0.4-0.4,0.5c0.1,0.2,0.1,0.4,0,0.6c-2.4,4.8-2.9,10.4-1.2,15.5s5.4,9.4,10.1,11.8c1.5,0.7,3.6,1.5,5.1,0.5
		c1.5-0.9,1.8-2.7,2.3-4.6c0.2-0.9,0.4-1.9,0.7-2.8C1793.6,159,1793.9,158.8,1794.2,158.8z"/>
</g>
<g>
	<path class="st0" d="M542,100.7c-0.4,0-0.7,0-1.1,0c-2.6-0.1-5.3-0.5-7.9-1.1c-1.6-0.4-3.6-0.9-5.3-2c-3.8-2.3-5.6-6.6-6.7-10.3
		c-0.2,0.2-0.4,0.3-0.6,0.5c-0.9,0.5-2,0.6-3.2,0.3c-1.9-0.5-3.4-1.8-3.9-3.5c-0.5-1.5,0.1-3.2,1.2-4.2c-1.4,0-2.8-0.2-4.2-0.5
		c-1-0.2-2.2-0.6-2.8-1.6c-0.5-0.9-0.4-1.8-0.3-2.6c0.2-1.8,0.5-3.7,2-4.9c1-0.7,2.1-0.9,3.3-0.7c-0.2-0.4-0.5-0.9-0.6-1.3
		c-0.6-1.7-0.6-3.5-0.6-5c0-2.6,0.2-5.1,2.1-6.6c1.1-0.8,2.4-1.1,3.5-1.2c5-0.5,10,1,13.9,4.1c2.8,2.3,5,5.4,6.1,8.8
		c0.3-1,0.9-1.9,1.8-2.6c2.3-1.7,5.7-0.7,7.4,1.3c0.6,0.6,1,1.3,1.4,2c0.1-1.5,0.2-3,0.5-4.5c0.3-1.4,0.7-3.3,1.9-4.7
		c2.9-3.7,8.4-3.3,10.7-2.9c2.5,0.4,8.5,1.9,10.4,7c0.8,2.2,0.6,4.6,0.3,6.6c-0.3,1.7-0.7,3.7-1.7,5.4c-0.9,1.4-2.2,2.7-3.9,3.7
		c0.1,0.1,0.2,0.2,0.3,0.3c2.1,2.4,3.9,6.4,2,9.7c-1.3,2.2-3.8,3.4-7.6,3.7c-2.9,0.2-5.3,0-7.3-0.9c-1.1-0.5-2.1-1.2-2.9-2
		c0,1.8-0.5,3.7-1.3,5.3c-0.8,1.5-1.9,2.7-3.2,3.3C544.6,100.6,543.3,100.7,542,100.7z M522,85c0.9,3.8,2.5,9,6.6,11.5
		c1.5,0.9,3.3,1.4,4.8,1.8c2.5,0.6,5.1,0.9,7.6,1.1c1.6,0.1,3,0,4.1-0.5c1-0.5,1.9-1.4,2.5-2.7c1.1-2.2,1.5-4.8,0.9-7.2
		c-0.1-0.4-0.2-0.7-0.3-1.1c-0.1-0.4,0.2-0.7,0.5-0.8c0.4-0.1,0.7,0.1,0.8,0.4c0.1,0.3,0.2,0.7,0.3,1c0.6,1.5,2,2.9,3.8,3.7
		c1.8,0.8,3.9,1,6.6,0.8c3.3-0.3,5.5-1.3,6.5-3.1c1.5-2.6,0-6-1.8-8.1c-0.2-0.2-0.4-0.4-0.6-0.6c-0.4,0.2-0.8,0.4-1.2,0.5
		c-0.2,0.1-0.5,0.1-0.7-0.1c-0.2-0.1-0.3-0.4-0.3-0.6c0-0.4,0.3-0.8,0.6-1.1c0.4-0.3,1-0.4,1.5-0.3c0,0,0,0,0,0
		c1.5-0.8,3.1-1.9,4-3.6c0.9-1.5,1.3-3.3,1.5-4.9c0.3-1.8,0.5-4-0.2-5.9c-1.6-4.4-7.1-5.7-9.3-6.1c-2-0.3-6.9-0.7-9.4,2.4
		c-1,1.2-1.4,2.9-1.6,4.1c-0.6,3-0.7,6.1-0.3,9.1c0,0.4-0.2,0.7-0.6,0.8c-0.4,0.1-0.7-0.2-0.8-0.5c-0.5-2.2-1.1-4.6-2.6-6.3
		c-1.4-1.5-3.9-2.3-5.6-1.1c-1.4,1.1-1.7,3.3-1.7,5.5c0,0.4-0.3,0.7-0.7,0.7c-0.4,0.1-0.7-0.3-0.7-0.6c-0.5-4.6-2.9-8.9-6.5-11.8
		c-3.6-2.9-8.3-4.3-12.9-3.8c-0.9,0.1-2,0.3-2.8,0.9c-1.4,1.1-1.6,3.3-1.6,5.5c0,1.8,0.1,3.2,0.6,4.6c0.4,1.1,1.1,2.1,1.9,2.6
		c0.3,0.1,0.6,0.3,0.9,0.4c0.3,0.2,0.5,0.6,0.3,0.9c-0.1,0.3-0.5,0.5-0.9,0.4c-0.4-0.1-0.7-0.3-1-0.5c-1.5-0.7-3.2-1.1-4.4-0.2
		c-1.1,0.8-1.3,2.3-1.5,3.9c-0.1,0.7-0.1,1.3,0.1,1.7c0.3,0.6,1.2,0.8,1.9,0.9c1.8,0.4,3.6,0.5,5.4,0.4c0.4,0,0.7,0.3,0.7,0.7
		c0,0.3-0.1,0.5-0.3,0.6c0.1,0.3-0.1,0.7-0.4,0.8c-1.1,0.4-1.7,1.9-1.3,3.1c0.4,1.2,1.5,2.2,2.9,2.5c0.5,0.1,1.4,0.3,2.2-0.2
		c0.5-0.3,0.8-0.9,0.8-1.4c0-0.1,0-0.1,0-0.2c-0.1-0.4,0.1-0.7,0.5-0.8c0.4-0.1,0.7,0.1,0.8,0.5C521.9,84.8,522,84.9,522,85z"/>
</g>
<g>
	<g>
		<path class="st4" d="M2112.6,72.9"/>
	</g>
	<g>
		<path class="st3" d="M2130.4,106.5c-8.6,0-17.3-5.2-21.6-13.1c-3.3-6.1-4.1-13.3-2.1-19.9c1.9-6.6,6.5-12.3,12.5-15.6
			c0,0,0.1,0,0.1,0c4.2-2.3,9.3-4.9,16.8-3.9c16.7,2.4,24.5,11.4,23.2,26.9c-0.8,9.8-6.7,15.9-11.5,19.3c-5.4,3.9-11.7,6-15.5,6.3
			C2131.7,106.5,2131,106.5,2130.4,106.5z M2119.4,59.4c-5.4,3.2-9.6,8.4-11.3,14.5c-1.8,6.3-1.1,13.1,2,18.9
			c4.3,8,13.4,13.1,22.1,12.3c3.6-0.3,9.6-2.3,14.8-6.1c4.5-3.3,10.1-9.1,10.9-18.3c1.3-14.8-5.9-23.1-22-25.4
			C2128.4,54.3,2123.4,57.1,2119.4,59.4L2119.4,59.4z"/>
	</g>
	<g>
		<path class="st3" d="M2066.2,83.8c-0.4,0-0.7-0.3-0.7-0.7c0-0.4,0.3-0.7,0.7-0.7c11.3-0.4,22.7-1.4,33.9-3
			c0.4-0.1,0.7,0.2,0.8,0.6c0.1,0.4-0.2,0.7-0.6,0.8C2089.1,82.4,2077.6,83.4,2066.2,83.8C2066.3,83.8,2066.3,83.8,2066.2,83.8z"/>
	</g>
	<g>
		<path class="st3" d="M2115.4,132.9c-0.1,0-0.1,0-0.2,0c-0.4-0.1-0.6-0.5-0.5-0.9c2.1-6.5,4.6-13.1,7.4-19.4
			c0.2-0.4,0.6-0.5,0.9-0.4c0.4,0.2,0.5,0.6,0.4,0.9c-2.8,6.3-5.3,12.7-7.4,19.2C2116,132.7,2115.7,132.9,2115.4,132.9z"/>
	</g>
	<g>
		<path class="st3" d="M2164.9,124.5c-0.2,0-0.4-0.1-0.5-0.3c-3-3.7-5.1-7.3-7.1-10.7c-1.8-3.2-3.7-6.4-6.3-9.8
			c-0.3-0.1-0.5-0.4-0.7-0.7c-0.4-0.5-0.8-1-0.2-1.5c0.6-0.4,1,0.1,1.4,0.6c0,0,0,0,0,0c3,3.7,5.1,7.3,7.1,10.7
			c1.9,3.4,4,6.9,6.9,10.5c0.2,0.3,0.2,0.7-0.1,1C2165.2,124.5,2165,124.5,2164.9,124.5z"/>
	</g>
	<g>
		<path class="st3" d="M2187.6,79.1C2187.5,79.1,2187.5,79.1,2187.6,79.1c-6-0.7-17.8-1.4-23.9-1.4c-0.4,0-0.7-0.3-0.7-0.7
			c0-0.4,0.3-0.7,0.7-0.7h0c6.2,0,17.8,0.7,23.9,1.4c0.4,0,0.7,0.4,0.6,0.8C2188.2,78.9,2187.9,79.1,2187.6,79.1z"/>
	</g>
	<g>
		<path class="st3" d="M2145.1,52c-0.1,0-0.1,0-0.2,0c-0.4-0.1-0.6-0.5-0.5-0.8l7.8-32.9c0.1-0.4,0.5-0.6,0.8-0.5
			c0.4,0.1,0.6,0.5,0.5,0.8l-7.8,32.9C2145.7,51.8,2145.4,52,2145.1,52z"/>
	</g>
	<g>
		<path class="st3" d="M2158.8,62.9c-0.2,0-0.4-0.1-0.5-0.3c-0.2-0.3-0.2-0.7,0.1-1l23.3-18.3c0.3-0.2,0.7-0.2,1,0.1
			c0.2,0.3,0.2,0.7-0.1,1l-23.3,18.3C2159.1,62.8,2158.9,62.9,2158.8,62.9z"/>
	</g>
	<g>
		<path class="st3" d="M2127.9,52.6c-0.3,0-0.6-0.2-0.7-0.5c-3-9.6-3.4-10.5-4.7-12.7c-0.8-1.4-1.9-3.4-4.1-8.3
			c-0.2-0.4,0-0.8,0.4-0.9c0.4-0.2,0.8,0,0.9,0.4c2.2,4.9,3.3,6.8,4.1,8.2c1.3,2.3,1.8,3.2,4.8,13c0.1,0.4-0.1,0.8-0.5,0.9
			C2128.1,52.6,2128,52.6,2127.9,52.6z"/>
	</g>
	<g>
		<path class="st3" d="M2140.8,138c-0.4,0-0.7-0.3-0.7-0.7c-0.2-10.1-0.4-11-1-13.5c-0.4-1.6-0.9-3.8-1.6-9.1
			c-0.1-0.4,0.2-0.7,0.6-0.8c0.4-0.1,0.7,0.2,0.8,0.6c0.7,5.3,1.2,7.4,1.6,9c0.6,2.6,0.8,3.6,1,13.8
			C2141.5,137.7,2141.2,138,2140.8,138C2140.8,138,2140.8,138,2140.8,138z"/>
	</g>
	<g>
		<path class="st3" d="M2109.4,64.2c-0.2,0-0.3-0.1-0.5-0.2c-3.5-3.2-7.9-5.8-12.1-8.3c-5-2.9-10.1-5.9-14-10c-0.3-0.3-0.3-0.7,0-1
			c0.3-0.3,0.7-0.3,1,0c3.8,4,8.9,6.9,13.7,9.8c4.3,2.5,8.8,5.1,12.4,8.5c0.3,0.3,0.3,0.7,0,1C2109.8,64.2,2109.6,64.2,2109.4,64.2z
			"/>
	</g>
	<g>
		<path class="st3" d="M2191.4,100.8c0,0-0.1,0-0.1,0c-9-1.6-17.7-4.5-25.9-8.6c-0.3-0.2-0.5-0.6-0.3-0.9c0.2-0.3,0.6-0.5,0.9-0.3
			c8,4.1,16.6,6.9,25.5,8.5c0.4,0.1,0.6,0.4,0.6,0.8C2192.1,100.6,2191.8,100.8,2191.4,100.8z"/>
	</g>
	<g>
		<path class="st3" d="M2081.6,117c-0.3,0-0.5-0.1-0.6-0.4c-0.2-0.3,0-0.8,0.3-0.9c7.2-3.5,14.2-7.4,20.9-11.7
			c0.3-0.2,0.8-0.1,1,0.2c0.2,0.3,0.1,0.8-0.2,1c-6.8,4.3-13.9,8.3-21.1,11.8C2081.8,117,2081.7,117,2081.6,117z"/>
	</g>
	<g>
		<path class="st3" d="M2133.6,99.8c-3.7,0-7.9-0.9-12.7-3.4c-10.9-5.6-11.1-18.6-11.1-18.7c0-0.4,0.2-0.7,0.7-0.7
			c0.4,0,0.7,0.3,0.7,0.7c0,0.1,0.2,12.3,10.4,17.5c7.9,4,15.2,4.3,21.7,0.8c4.8-2.6,7.4-6.5,7.4-6.5c0.2-0.3,0.7-0.4,1-0.2
			c0.3,0.2,0.4,0.6,0.2,1C2151.7,90.4,2145.4,99.8,2133.6,99.8z"/>
	</g>
	<g>
		<path class="st3" d="M2117.9,76.1c-0.2,0-0.4,0-0.6-0.1c-0.3-0.2-0.5-0.4-0.6-0.8c-0.1-0.3,0-0.7,0.5-1.2c0.6-0.6,1.5-1,2.4-1.1
			c0.4,0,0.7,0.2,0.8,0.6c0,0.4-0.2,0.7-0.6,0.8c-0.1,0-0.2,0-0.3,0.1c0.2,0.2,0.2,0.5,0,0.8c-0.2,0.3-0.5,0.7-1,0.9
			C2118.2,76.1,2118,76.1,2117.9,76.1z"/>
	</g>
	<g>
		<path class="st3" d="M2146.6,85.2c-0.4,0-1-0.2-1.5-1.1c-0.1-0.2-0.1-0.3,0-0.5c-0.1-0.3,0-0.7,0.4-0.8c0.4-0.2,1.6-0.8,2.4-0.1
			c0.4,0.3,0.5,0.9,0.3,1.4C2148,84.6,2147.4,85.2,2146.6,85.2C2146.7,85.2,2146.7,85.2,2146.6,85.2z M2146.7,83.8
			C2146.7,83.8,2146.7,83.8,2146.7,83.8C2146.7,83.8,2146.7,83.8,2146.7,83.8C2146.7,83.8,2146.7,83.8,2146.7,83.8z"/>
	</g>
</g>
<g>
	<path class="st0" d="M444.1,134.8c-1.1,0-2.2,0-3.3-0.1c-1.2-0.1-2.4-0.3-3.4-1c-0.9-0.6-1.5-1.5-1.8-2.5c-1.6-0.5-3.4-1.3-4.6-2.7
		c-0.8-1-1.3-2.1-1.3-3.3c-0.5-0.1-0.9-0.3-1.2-0.7c-0.7-0.8-0.7-2.1-0.6-2.9c0.5-2.9,1.8-5.6,3.8-7.9c1.6-1.9,3.4-3,5.2-3.4
		c3-0.5,5.7,1.1,7.4,3.3c0.1-1.9,0.4-3.8,1.3-5.6c1.4-2.6,4.9-4.8,8.1-3.7c1.8,0.6,3.2,2.1,4.2,4.3c1.5,3.2,1.9,6.7,1.2,10.1
		c3-3.1,7.1-5.3,11.5-6c0.9-0.1,1.9-0.2,2.8,0.1c0.9,0.4,1.5,1.1,2,1.7c3.3,4.2,5.4,9.1,6.2,14.3c0.1,0.9,0.2,1.9-0.2,2.8
		c-0.7,1.7-2.6,2.6-5.7,2.9c-4.4,0.3-8.9,0.1-13.3-0.7c-2.9-0.5-5.3-1.3-7.2-2.3c-0.3,0.5-0.7,1-1.2,1.4c-1,0.7-2.3,1-3.5,1.2
		C448.4,134.6,446.3,134.8,444.1,134.8z M437.4,131.5c0.2,0.4,0.5,0.7,0.9,1c0.8,0.5,1.8,0.7,2.8,0.7c3.1,0.3,6.2,0.1,9.2-0.4
		c1-0.2,2.1-0.4,2.9-1c0.3-0.2,0.6-0.6,0.8-0.9c-0.9-0.6-1.7-1.3-2.4-2.1c-0.1-0.2-0.2-0.4-0.2-0.6c0-0.2,0.2-0.4,0.3-0.5
		c0.6-0.3,1.4-0.4,2.1-0.1c0.8,0.3,1.4,1,1.6,1.7c0.1,0.3,0.1,0.5,0.1,0.8c1.8,1,4.1,1.8,7.1,2.3c4.3,0.8,8.6,1,13,0.7
		c2.5-0.2,4.1-0.9,4.6-2c0.3-0.6,0.2-1.4,0.1-2.1c-0.7-4.9-2.7-9.6-5.9-13.6c-0.4-0.5-0.9-1.1-1.5-1.3c-0.6-0.2-1.3-0.2-2-0.1
		c-5.6,0.9-10.7,4.4-13.3,9.1c-0.2,0.3-0.6,0.5-0.9,0.3c-0.3-0.2-0.5-0.6-0.3-0.9c2.2-4.1,2.4-9.1,0.4-13.4c-0.9-1.9-2-3.1-3.4-3.6
		c-2.5-0.9-5.3,0.9-6.4,3c-1.3,2.4-1.2,5.3-1.1,7.8c0,0.3-0.2,0.6-0.6,0.7c-0.3,0.1-0.7-0.1-0.8-0.5c-0.9-2.9-4-5.6-7.2-5
		c-1.5,0.3-3,1.3-4.4,2.9c-1.8,2.1-3,4.6-3.5,7.2c-0.1,0.7,0,1.4,0.3,1.7c0.1,0.1,0.1,0.1,0.2,0.2c0.2-0.8,0.6-1.6,1.2-2.2
		c0.2-0.2,0.5-0.2,0.7-0.2c0.3,0.1,0.4,0.3,0.4,0.6c0.1,0.8-0.1,1.9-0.8,2.6c-0.1,0.1-0.2,0.2-0.3,0.3c0,1,0.4,2,1,2.7
		c0.9,1,2.1,1.7,3.4,2.1c0-0.2,0-0.4,0-0.5c0.2-1.6,0.9-3.1,1.6-4.4c0.2-0.3,0.6-0.5,0.9-0.3c0.3,0.2,0.5,0.6,0.3,0.9
		c0,0.1-0.1,0.1-0.1,0.2c0.7-0.1,1.4,0.1,1.9,0.7c0.8,0.9,0.9,2.1,0.3,3.7c-0.2,0.5-0.4,0.9-0.8,1.3c-0.7,0.5-1.5,0.5-2.2,0.4
		C437.5,131.5,437.4,131.5,437.4,131.5z M436.9,130c0.3,0.1,0.6,0.1,0.8,0.2c0.4,0.1,0.9,0.1,1.1-0.1c0.1-0.1,0.2-0.4,0.3-0.6
		c0.4-1.1,0.4-1.9,0-2.4c-0.2-0.2-0.7-0.3-1.1-0.1c-0.1,0-0.2,0.1-0.2,0.2c0.1,0.4-0.2,0.7-0.6,0.8c0,0-0.1,0-0.1,0
		c-0.1,0.4-0.2,0.8-0.3,1.3C436.9,129.5,436.9,129.7,436.9,130z"/>
</g>
<g>
	<path class="st0" d="M2343.5,166.3c-3.2,0-6.4-1.4-8.6-4c-1.4-1.7-2.4-3.8-2.8-6c-0.3,0.4-0.7,0.9-1.1,1.3
		c-2.6,2.7-6.5,4.2-10.1,3.9c-7.6-0.7-12.8-7-15.2-10.7c-3.3-5.1-4.9-10.4-4.5-15.2c0.1-0.7,0.2-1.5,0.6-2.2c0.9-1.4,2.6-1.7,4-1.5
		c1.3,0.2,2.5,0.8,3.5,1.7c0.1-1.8,0.4-3.6,1.1-5.3c0.3-0.8,0.7-1.7,1.7-2.1c0.9-0.4,1.9-0.1,2.7,0.3c3.9,1.7,7.3,4.5,9.7,8
		c0.9-2.6,2.1-4.5,3.6-5.9c2.4-2.2,5.7-2.9,8.3-1.8c1.1,0.5,2,1.3,2.6,2.4c2.3-5.2,7.3-9.1,12.7-9.3c3.7-0.2,7.6,1.6,10.2,4.7
		c2.3,2.7,3.2,5.9,2.7,8.9c1.9-0.2,3.8,0.3,5.3,1.6c0.2,0.2,0.3,0.5,0.2,0.8c-1,2.7-2.8,5-4.9,6.9c1,0.1,2.1,0.5,3.1,1.1
		c2.3,1.3,3.9,3.6,4.4,6c0.8,4.1-1,8.7-4.8,12c-2.7,2.3-5.6,3.1-7.9,2c-1.2-0.6-2.1-1.6-2.6-2.4c-1.3-1.8-2.3-3.9-2.8-6
		c-1.2,4.5-3.4,8.4-7.5,10.1C2346,166,2344.7,166.3,2343.5,166.3z M2333.3,153.9c0.1,2.8,1,5.4,2.7,7.4c2.6,3.1,7.1,4.3,10.5,2.9
		c5.2-2.1,6.9-8.6,7.8-14.7c0-0.1,0-0.3,0.1-0.4c0.1-0.4,0.4-0.7,0.9-0.6c0.4,0.1,0.7,0.4,0.6,0.8c0,0.1,0,0.3-0.1,0.4
		c-0.5,3.8,0.5,7.8,2.8,10.9c0.7,1,1.4,1.6,2.1,1.9c2,1,4.6-0.3,6.3-1.8c3.3-2.9,5-7.1,4.3-10.6c-0.4-2-1.8-3.9-3.7-5
		c-1.6-0.9-3.3-1.2-4.8-0.7c-0.4,0.1-0.8-0.1-0.9-0.4c-0.2-0.3,0-0.8,0.3-1c2.8-1.7,5.1-4.2,6.4-7.3c-1.4-0.9-3.2-1.2-4.8-0.6
		c-0.4,0.1-0.8-0.1-1-0.4c-0.1-0.3,0-0.7,0.3-0.9c0-0.1,0-0.2,0-0.3c0.6-2.7-0.2-5.7-2.3-8.1c-2.3-2.7-5.8-4.3-9-4.1
		c-5.3,0.3-10.3,4.6-12,10.1c0.1,1.1-0.1,2.2-0.7,3.1c-0.2,0.3-0.6,0.4-0.9,0.3c-0.3-0.1-0.5-0.4-0.5-0.8c0.1-0.9,0.3-1.9,0.6-2.8
		c0-0.1-0.1-0.3-0.1-0.4c-0.4-1.2-1.3-2.3-2.4-2.8c-2.4-1-5.1,0-6.7,1.5c-1.6,1.5-2.8,3.6-3.7,6.7c-0.1,0.3-0.3,0.5-0.6,0.5
		c-0.3,0-0.6-0.1-0.7-0.3c-2.3-3.8-5.9-6.9-9.9-8.7c-0.5-0.2-1.1-0.4-1.5-0.3c-0.4,0.2-0.7,0.8-0.9,1.3c-0.8,2.1-1.1,4.4-1,6.6
		c0.9,1.5,1.2,3.3,0.9,4.9c-0.1,0.3-0.4,0.6-0.7,0.6c-0.3,0-0.6-0.2-0.8-0.5c-0.5-1.5-0.8-3-0.9-4.5c0,0-0.1-0.1-0.1-0.1
		c-0.9-1.3-2.3-2.2-3.7-2.3c-0.8-0.1-2,0-2.5,0.8c-0.3,0.4-0.3,1-0.4,1.5c-0.4,5.6,2.1,10.8,4.3,14.2c3.8,5.9,8.9,9.6,14,10
		c3.1,0.3,6.6-1.1,8.9-3.5c0.8-0.9,1.5-1.9,1.9-2.9c0-1.3,0.1-2.6,0.5-3.9c0.1-0.3,0.4-0.6,0.8-0.6c0.4,0,0.7,0.3,0.7,0.6
		C2334,151.2,2333.8,152.6,2333.3,153.9z"/>
</g>
</svg>
