<?xml version="1.0" encoding="utf-8"?>
<!-- Generator: Adobe Illustrator 21.0.0, SVG Export Plug-In . SVG Version: 6.00 Build 0)  -->
<svg version="1.1" id="Ebene_1" xmlns="http://www.w3.org/2000/svg" xmlns:xlink="http://www.w3.org/1999/xlink" x="0px" y="0px"
	 viewBox="0 0 2543 841.9" style="enable-background:new 0 0 2543 841.9;" xml:space="preserve">
<style type="text/css">
	.st0{fill:#E31013;}
	.st1{fill:#FFD500;}
	.st2{fill:#A2C62C;}
	.st3{fill:#5FC4E1;}
</style>
<g>
	<g>
		<path class="st0" d="M511.6,454.5c-0.2,0-0.3,0-0.4,0c-3.5-0.3-6.2-1.4-7.9-3.2c-2.6-2.9-2.6-7.1-2.3-10c0.2-2.1,0.5-4.1,0.9-6.2
			c-2.2,1.8-4.4,3.4-6.8,4.9c-4.8,3-8.6,3.8-11.7,2.3c-0.4-0.2-1-0.5-1.3-1.1c-0.2-0.4-0.3-0.9-0.3-1.3c-0.1-4.4,2.7-8.8,7.1-10.9
			c3.1-1.5,6.9-1.9,10.7-1.1c-0.8-1.4-1.1-3.1-1.2-4.4c-0.3-3-0.3-6.2-0.1-9.5c0.6-7.3,3-12.3,7-14.9c1.9-1.2,4.7-1.8,6.5-0.2
			c0.7,0.6,1.1,1.5,1.4,2.2c3.4,7.8-0.4,21.1-3.9,28.4c5.3-2.8,11.8-4,18.8-3.6c2.3,0.1,4.9,0.5,7.1,1.8c2.5,1.5,4,4,3.8,6.4
			c-0.2,3.4-3.2,5.6-5.9,6.2c-2.9,0.7-5.8,0.1-8.6-0.5c-6-1.4-10.8-3-15.1-4.9c3.6,5.1,5.2,11.6,4.2,17.7c-0.1,0.3-0.2,1.1-0.8,1.5
			C512.4,454.4,512,454.5,511.6,454.5z M503,432.4c0.1,0,0.3,0,0.4,0.1c0.3,0.2,0.4,0.5,0.3,0.8c-0.7,2.6-1.1,5.3-1.3,8
			c-0.2,2.7-0.3,6.5,2,9c1.4,1.6,3.8,2.5,7,2.8c0.1,0,0.5,0,0.6,0c0.1-0.1,0.2-0.5,0.2-0.6c1.2-6.8-1.1-14.2-6-19.1
			c-0.2-0.2-0.3-0.6-0.1-0.9c0.2-0.3,0.6-0.4,0.9-0.2c4.8,2.6,10.4,4.6,17.7,6.3c2.6,0.6,5.4,1.1,7.9,0.5c2.3-0.6,4.7-2.4,4.9-5
			c0.1-2.2-1.5-4.1-3.1-5.1c-2-1.2-4.4-1.5-6.5-1.6c-6.8-0.4-13.1,0.8-18.2,3.5c-0.3,0.2-0.8,0.1-0.9-0.3c-0.1-0.1-0.1-0.2-0.1-0.3
			c-0.2,0.1-0.4,0.1-0.6,0c-0.3-0.2-0.5-0.6-0.3-0.9c3.3-6.7,7.2-20.2,4-27.6c-0.3-0.6-0.6-1.3-1.1-1.7c-1.2-1.1-3.3-0.6-4.8,0.3
			c-3.7,2.3-5.8,7-6.4,13.9c-0.3,3.2-0.2,6.3,0.1,9.2c0.3,2.9,1.1,4.5,2.4,5.3c0.3,0.2,0.4,0.6,0.3,0.9c-0.1,0.3-0.5,0.5-0.9,0.4
			c-4.2-1.5-8.6-1.4-12.1,0.3c-3.8,1.9-6.4,5.8-6.3,9.6c0,0.3,0,0.5,0.1,0.7c0.1,0.2,0.3,0.3,0.7,0.5c2.7,1.2,6.1,0.5,10.4-2.2
			c2.9-1.8,5.7-3.9,8.2-6.2C502.7,432.5,502.9,432.4,503,432.4z"/>
	</g>
	<g>
		<path class="st1" d="M506,418.8c-0.4,0-0.8-0.1-1.1-0.1c-0.2,0-0.4-0.1-0.6-0.1c-0.2,0-0.4,0-0.5,0c-0.5,0-1-0.1-1.5-0.3h0
			c-0.8-0.3-1.8-1.2-2-3.2c-0.4-3.2,1.4-8.3,3.4-9.7c1.5-1.1,3.3-1.1,5.3-0.3c3,1.3,2.6,4.2,2.2,6.6l0,0.2c-0.2,1.3-0.4,2.8-1.3,4.1
			c-0.5,0.8-1.2,1.4-1.8,1.9c-0.3,0.3-0.8,0.7-1.3,0.8C506.5,418.7,506.3,418.8,506,418.8z M502.9,417c0.3,0.1,0.6,0.1,1,0.2
			c0.2,0,0.4,0,0.6,0c0.2,0,0.4,0.1,0.6,0.1c0.4,0.1,0.9,0.2,1.2,0.1c0.3-0.1,0.5-0.3,0.8-0.6c0.6-0.5,1.2-1,1.6-1.7
			c0.7-1,0.9-2.3,1.1-3.5l0-0.2c0.4-2.6,0.6-4.2-1.4-5.1c-1.6-0.7-2.9-0.6-3.9,0.1c-1.4,1-3.1,5.5-2.8,8.4
			C501.9,416,502.2,416.7,502.9,417z"/>
	</g>
	<g>
		<path class="st2" d="M492.5,438.5c-0.8,0-1.5-0.3-2-0.8c-0.8-0.9-1-2.3-0.4-4c0.2-0.6,0.5-1.2,0.8-1.6c0-0.1,0-0.2,0.1-0.4
			c0.1-0.5,0.5-0.9,0.9-1c0.2-0.1,0.4-0.1,0.6-0.1c0.3-0.2,0.6-0.3,0.9-0.3c0.4-0.1,0.8,0.1,0.8,0.5c0,0.1,0,0.1,0,0.2l1.3,0.4
			c0.2,0.1,0.7,0.2,0.9,0.6c0.2,0.4,0.2,0.8,0.2,1c-0.1,1.4-0.3,3.1-1.4,4.3C494.6,437.9,493.6,438.4,492.5,438.5
			C492.6,438.5,492.5,438.5,492.5,438.5z M491.9,433.1c-0.2,0.4-0.4,0.8-0.5,1.1c-0.2,0.5-0.5,1.8,0.1,2.6c0.3,0.3,0.7,0.4,1,0.4
			c0.6,0,1.3-0.3,1.6-0.8c0.8-0.9,1-2.3,1.1-3.6c0,0,0-0.1,0-0.1c0,0-0.1,0-0.1,0l-1.9-0.5c-0.1,0-0.3-0.1-0.4-0.1
			c-0.1,0.1-0.2,0.2-0.3,0.3c0,0.2-0.1,0.5-0.3,0.7C492.1,433,492,433.1,491.9,433.1z"/>
	</g>
	<g>
		<path class="st1" d="M506.4,449.5c-0.4,0-0.6-0.2-0.8-0.3c-0.1-0.1-0.1-0.1-0.2-0.2c-1.1-0.8-1.7-2.3-1.5-3.9l0,0
			c0.1-1.1,0.7-1.9,1.6-2.1c1.3-0.4,2.9,0.3,3.7,1.4c0.7,0.9,0.7,1.9,0.1,2.8c-0.5,0.7-1.1,1.4-2.1,2
			C507.1,449.3,506.8,449.4,506.4,449.5C506.5,449.5,506.4,449.5,506.4,449.5z M506.2,444.3c-0.1,0-0.3,0-0.4,0
			c-0.2,0.1-0.6,0.2-0.6,0.9l0,0c-0.1,1.1,0.3,2.1,1,2.6l0.1,0.1c0.9-0.5,1.5-1,1.8-1.5c0.3-0.4,0.2-0.8-0.1-1.2
			C507.7,444.7,506.9,444.3,506.2,444.3z M504.5,445.2L504.5,445.2L504.5,445.2z"/>
	</g>
	<g>
		<path class="st3" d="M530.2,438.3c-0.6,0-1.3-0.1-2-0.3c-1.5-0.4-2.7-1.1-3.6-2c-0.2-0.2-0.6-0.6-0.7-1.1c-0.1-0.4,0-0.8,0.1-1.2
			c0.2-0.8,0.6-1.6,1-2.3c0.2-0.3,0.5-0.7,1-1c1.1-0.7,2.5-0.2,3.2,0.1c0.3,0.1,0.5,0.4,0.5,0.7c0.2,0.1,0.4,0.2,0.6,0.3
			c1.1,0.7,2.1,1.6,2.8,2.7c0.3,0.5,0.8,1.2,0.6,2.1c-0.1,0.4-0.3,0.7-0.6,1C532.3,438,531.4,438.3,530.2,438.3z M527.4,431.5
			c-0.2,0-0.4,0-0.6,0.1c-0.2,0.1-0.4,0.4-0.5,0.6c-0.4,0.6-0.7,1.2-0.8,1.9c0,0.2-0.1,0.4-0.1,0.5c0,0.2,0.2,0.3,0.3,0.4
			c0.7,0.7,1.7,1.3,2.9,1.6c0.7,0.2,2.5,0.6,3.4-0.4c0.1-0.1,0.2-0.2,0.2-0.4c0.1-0.2-0.1-0.5-0.4-0.9c-0.6-0.9-1.5-1.7-2.4-2.3
			c-0.1-0.1-0.3-0.3-0.4-0.2c-0.2,0-0.4,0.3-0.6,0.5c-0.1,0.1-0.1,0.2-0.2,0.2c0,0.1,0.1,0.1,0.1,0.2c0,0.4-0.2,0.7-0.6,0.8
			c-0.4,0.1-0.9-0.1-1.1-0.5c-0.1-0.2-0.2-0.4-0.1-0.6c0-0.2,0.2-0.4,0.3-0.5c0.2-0.1,0.3-0.3,0.5-0.6c0.2-0.2,0.3-0.5,0.6-0.7
			C527.8,431.5,527.6,431.5,527.4,431.5z"/>
	</g>
	<g>
		<path class="st2" d="M509.8,428.5c-0.2,0-0.5-0.1-0.6-0.3c-0.2-0.3-0.1-0.7,0.1-0.9c3.7-3.2,7.5-6.5,10.9-11
			c2.7-3.6,5-7.9,6.9-12.7c-0.2,0-0.4-0.2-0.5-0.4c-0.1-0.2-0.2-0.3-0.2-0.5c-0.1-0.1-0.1-0.3-0.1-0.4c0.1-0.9,0.3-1.7,0.6-2.4
			c0.3-0.6,0.9-1,1.4-0.9c0.4,0,0.8,0.3,1,0.8c0.3,0.7,0,1.6-0.2,2.3c-2,5.7-4.7,10.8-7.8,15c-1.4,1.8-2.8,3.5-4.3,5
			c1.1-1,2.2-2,3.3-3c2.4-2.3,5-4.6,7.4-6.3c0.7-0.5,1.4-0.9,2-1.4c4.5-3.2,9.1-6.4,13.9-7.2c0.4-0.1,0.7,0.2,0.8,0.6
			c0.4,2.5-1,5.4-2.5,6.8c-0.8,0.8-1.7,1.2-2.5,1.7c-0.7,0.4-1.3,0.7-1.9,1.2c-0.2,0.1-0.4,0.2-0.6,0.1c-0.2-0.1-0.4-0.2-0.5-0.4
			c-0.5-1.2,0-3.1,0.8-4c0.9-1,1.9-1.1,2.6-1.2c0.2,0,0.4,0,0.6,0.2c0.2,0.2,0.2,0.4,0.2,0.6c-0.1,0.5-0.3,1-0.6,1.4
			c0.3-0.2,0.6-0.5,1-0.7c1.1-1,2.1-3.1,2.2-4.9c-4.2,0.9-8.4,3.9-12.5,6.8c-0.7,0.5-1.4,1-2,1.4c-2.4,1.7-4.9,4-7.3,6.2
			c-3.7,3.5-7.6,7-11.3,8.3C509.9,428.5,509.9,428.5,509.8,428.5z M538.6,411c-0.1,0.1-0.2,0.1-0.2,0.2c-0.3,0.4-0.6,0.9-0.6,1.5
			c0.4-0.2,0.7-0.4,1.1-0.6c0.2-0.1,0.4-0.2,0.5-0.3c-0.2,0-0.5-0.1-0.6-0.3C538.6,411.3,538.5,411.2,538.6,411z M527.9,401.2
			C527.9,401.2,527.9,401.2,527.9,401.2c0-0.1,0.1-0.2,0.1-0.3C528,401,527.9,401.1,527.9,401.2z"/>
	</g>
</g>
<g>
	<g>
		<path class="st2" d="M1872.5,841.9C1872.5,841.9,1872.4,841.9,1872.5,841.9c-0.4,0-0.7-0.4-0.7-0.8c1.1-14.2,1.8-31.1-0.7-49.3
			c-1-1.4-1.8-2.9-2.6-4.5c-0.7-1.3-1.4-2.6-2.2-3.8c-2-3-4.8-5.1-7.8-7.4c-1.6-1.2-3.2-2.4-4.7-3.8c-4.3-3.9-7.7-9.2-11.3-17.1
			c-5.4-11.8-8.9-24.5-10.5-37.5c0-0.3,0.1-0.5,0.3-0.7c0.2-0.1,0.5-0.2,0.7,0l12.1,7.4c1.5,0.9,3,1.8,4.2,3.2
			c1.3,1.4,2.1,3.2,2.9,4.9c1.2,2.5,2.4,5.1,3.7,7.6c2.5,5,5,10.1,7.1,15.4c4.8,12.2,7.7,24.2,9.3,35.8c0.6,0.8,1.4,1.5,2.2,2.1
			c0.3,0.2,0.4,0.6,0.2,1c-0.2,0.3-0.6,0.4-1,0.2c-0.4-0.3-0.8-0.6-1.1-0.9c2.2,17.5,1.6,33.8,0.5,47.5
			C1873.1,841.6,1872.8,841.9,1872.5,841.9z M1833.6,719c1.6,12.4,5,24.4,10.2,35.7c3.5,7.7,6.9,12.8,11,16.6c1.4,1.3,3,2.5,4.6,3.7
			c2.9,2.2,5.9,4.5,8.1,7.7c0.8,1.2,1.6,2.6,2.2,4c0.3,0.6,0.6,1.1,0.9,1.7c-1.7-10.5-4.4-21.4-8.8-32.3c-2.1-5.2-4.6-10.3-7-15.3
			c-1.2-2.5-2.5-5.1-3.7-7.6c-0.8-1.6-1.5-3.3-2.7-4.5c-1.1-1.2-2.5-2.1-3.9-3L1833.6,719z"/>
	</g>
	<g>
		<path class="st2" d="M1873.9,800.9c-0.1,0-0.2,0-0.3-0.1c-0.4-0.1-0.5-0.6-0.4-0.9c0.4-0.9,0.8-1.7,1.3-2.6
			c-0.1-12.9-0.9-23.2-1.6-32.4c-1.4-18.2-2.5-32.6,2.5-56.3c0.1-0.4,0.4-0.6,0.8-0.5c0.4,0.1,0.6,0.5,0.5,0.8
			c-4.9,23.5-3.8,37.8-2.4,55.9c0.6,8.2,1.3,17.3,1.5,28.4c1-3.1,2.1-6.1,3.2-9.1c1.6-4.3,3.2-8.7,4.4-13.5c1.8-7,3.7-14.3,7.8-20.6
			c4.5-7.1,11.4-11.5,18.2-11.8c0.3,0,0.5,0.1,0.6,0.4s0.1,0.5,0,0.7c-4.4,6.3-7.2,13.7-9.9,20.8c-3.3,8.6-6.7,17.4-12.7,24.5
			c-1.4,1.6-3,3.2-4.5,4.7c-2.6,2.6-5,5.1-6.8,7.9c-0.1,0.3-0.2,0.6-0.2,0.9c-0.1,0.3-0.3,0.5-0.6,0.5c-0.3,0.5-0.5,1.1-0.8,1.7
			C1874.4,800.7,1874.2,800.9,1873.9,800.9z M1908.1,739.8c-5.9,0.8-11.7,4.8-15.7,11c-3.9,6.1-5.8,13.3-7.6,20.2
			c-1.3,4.9-2.9,9.4-4.5,13.7c-1,2.8-2.1,5.7-3.1,8.8c1.5-1.8,3.1-3.4,4.7-5c1.5-1.5,3-3,4.4-4.6c5.9-6.9,9.2-15.7,12.5-24.1
			C1901.4,753,1904.1,746,1908.1,739.8z"/>
	</g>
	<g>
		<path class="st1" d="M1882.9,709.5c-0.1,0-0.2,0-0.3,0c-1.5,0-3-0.1-4.5-0.2c-2-0.1-4.2-0.4-6-1.7c-1.6-1.1-2.7-2.9-3.1-5.1
			c-0.3-1.7-0.2-3.7,0.4-5.8c0.3-0.9,0.7-2.1,1.5-3h0c2.2-2.5,6.2-3.2,10.4-2c4.4,1.3,7.6,4.3,8.2,7.7c0.5,2.9-0.2,5.8-1.9,7.9
			c-0.8,1-1.6,1.6-2.6,1.9C1884.3,709.5,1883.6,709.5,1882.9,709.5z M1871.9,694.7c-0.6,0.7-1,1.7-1.2,2.5c-0.5,1.9-0.7,3.6-0.4,5.1
			c0.3,1.8,1.2,3.3,2.5,4.2c1.5,1.1,3.5,1.3,5.3,1.4c1.5,0.1,3,0.2,4.4,0.2c0.7,0,1.4,0,2-0.2c0.7-0.2,1.3-0.7,1.9-1.4
			c1.4-1.8,2-4.3,1.6-6.8c-0.5-2.8-3.4-5.5-7.2-6.6C1878,692.3,1874.2,692.3,1871.9,694.7L1871.9,694.7z"/>
	</g>
	<g>
		<path class="st2" d="M1872.5,792.8c-0.3,0-0.6-0.2-0.7-0.5c-1.8-4.8-3.8-9.4-6.2-13.8c-1.5-2.8-3.2-5.6-4.8-8.4l-0.2-0.3
			c-6.1-10.3-11.9-20.7-17.5-30.9c-3.5-6.4-7.1-13-10.8-19.5c-0.2-0.3-0.1-0.8,0.3-1c0.3-0.2,0.8-0.1,1,0.3
			c3.7,6.5,7.3,13.1,10.9,19.5c5.6,10.1,11.3,20.6,17.5,30.9l0.2,0.3c1.6,2.7,3.3,5.5,4.9,8.4c2.4,4.5,4.5,9.2,6.3,14
			c0.1,0.4-0.1,0.8-0.4,0.9C1872.7,792.7,1872.6,792.8,1872.5,792.8z"/>
	</g>
	<g>
		<path class="st2" d="M1877.4,794.4c0,0-0.1,0-0.1,0c-0.4-0.1-0.6-0.4-0.6-0.8c0.5-2.7,1.7-5.1,2.8-7.4c0.6-1.2,1.2-2.5,1.7-3.7
			c0.6-1.6,1.1-3.2,1.6-4.8c0.3-1.1,0.6-2.3,1-3.4c1.1-3.3,2.6-6.6,5-10.7c2.9-5,6.1-9.9,9.3-14.6c2.4-3.6,5.7-8.6,10.8-10.4
			c0.4-0.1,0.8,0.1,0.9,0.4c0.1,0.4-0.1,0.8-0.4,0.9c-4.3,1.5-7.1,5.3-10.1,9.8c-3.1,4.7-6.4,9.5-9.2,14.5
			c-2.3,4.1-3.8,7.3-4.9,10.5c-0.4,1.1-0.7,2.2-1,3.3c-0.5,1.6-1,3.3-1.6,5c-0.5,1.3-1.1,2.6-1.7,3.8c-1.2,2.4-2.2,4.6-2.7,7.1
			C1878,794.2,1877.7,794.4,1877.4,794.4z"/>
	</g>
	<g>
		<path class="st0" d="M1885.3,723.7c-3.7,0-6.8-1.6-8.5-4.4c-1.6-2.5-1.5-4.8-1.4-7.1c0-0.4,0-0.9,0.1-1.4c-2,2.2-4.8,3.3-7.9,3.3
			c-4.5-0.1-8.7-2.7-11-6.8c-1.1-1.9-1-4.4,0.3-6.6c1.8-3.2,5.4-5.4,9.4-5.8c-1-0.7-2.1-1.8-3.6-3.3c-1.9-2-2.9-5-2.7-7.8
			c0.3-3.1,1.6-4,4.2-4.8c4.4-1.3,8.6,1.8,10.2,3.6c0.4,0.5,0.8,0.9,1.2,1.3c1.3,1.4,2.1,2.3,2.4,4.2c0.1-3.5,1.7-7.1,4.6-9.7
			c1.4-1.2,3.2-1.8,5.3-1.4c3.3,0.5,6.5,3.1,8.6,6.8c1.4,2.6-1.2,7.8-4.2,11.8c1.5-0.7,3.7-1.5,7.5-1.5c0,0,0.1,0,0.1,0
			c6.2,0,7.1,4.5,7.6,6.9l0.1,0.3c0.3,1.5,0.6,3.1-1.1,5.4c-1.1,1.4-3.7,3-9.7,2.3c-2.3-0.3-3.9-0.4-5.2-0.6c1.1,0.5,2.2,1,3,2.1
			c1.4,2.1,3.1,5.2,1.7,7.7c-1.7,3.2-5.9,5.5-10.3,5.7C1885.6,723.7,1885.4,723.7,1885.3,723.7z M1876.1,708.1c0.1,0,0.1,0,0.2,0
			c0.3,0.1,0.5,0.3,0.5,0.6c0.1,1.2,0.1,2.4,0,3.5c-0.1,2.2-0.2,4.2,1.1,6.3c2.2,3.4,5.8,3.8,7.7,3.8c3.9-0.1,7.6-2.2,9.1-4.9
			c1-1.9-0.4-4.5-1.6-6.3c-0.5-0.8-1.5-1.2-2.4-1.6c-0.9-0.4-1.8-0.8-2.5-1.6c-0.5-0.1-0.7-0.2-0.8-0.5c-0.2-0.4,0-0.8,0.1-0.9
			c0.1-0.2,0.4-0.5,0.7-0.4c0.3,0,0.5,0.1,0.7,0.3c0,0.1,0.1,0.1,0.1,0.2c0.3,0,0.7,0.1,1.2,0.1c1.3,0.1,3.3,0.3,6.5,0.7
			c5.9,0.7,7.9-1,8.4-1.7c1.4-1.8,1.1-2.8,0.8-4.3l-0.1-0.3c-0.5-2.4-1.2-5.8-6.2-5.8c-4.4,0.1-6.4,1-7.9,1.8
			c-0.7,0.4-1.3,0.7-2,0.8c-0.3,0.1-0.6-0.1-0.7-0.4c-0.1-0.3-0.1-0.6,0.1-0.8c3.7-3.9,7.2-10.3,6-12.5c-1.9-3.3-4.8-5.6-7.6-6.1
			c-1.6-0.3-3,0.1-4.1,1.1c-3.3,3-4.8,7.4-3.9,11.3c0.1,0.4-0.1,0.8-0.5,0.8c-0.4,0.1-0.8-0.1-0.8-0.5c-0.1-0.4-0.2-0.8-0.2-1.2
			c0,0.4-0.4,0.7-0.7,0.7c-0.4,0-0.7-0.3-0.7-0.7c0-2.6-0.6-3.3-2.1-4.9c-0.4-0.4-0.8-0.8-1.2-1.3c-1.1-1.3-4.9-4.4-8.8-3.2
			c-2.3,0.7-3.1,1.3-3.2,3.6c-0.2,2.4,0.7,5,2.3,6.7c2.6,2.7,4.1,3.7,5.1,4.2c0.4,0,0.6,0.1,0.8,0.3c0,0,0.1,0,0.1,0
			c0.4,0.1,0.6,0.4,0.5,0.8c-0.1,0.4-0.4,0.6-0.8,0.6c-0.2,0-0.4,0-0.7-0.2c-0.1,0-0.2-0.1-0.3-0.1c-0.3,0-0.7,0-1.5,0
			c-3.8,0.2-7.3,2.2-8.9,5.1c-1,1.8-1.1,3.7-0.3,5.2c2.1,3.7,5.8,6,9.8,6.1c3.3,0.1,6.2-1.5,7.9-4.2
			C1875.6,708.3,1875.9,708.1,1876.1,708.1z"/>
	</g>
</g>
</svg>
