<?xml version="1.0" encoding="UTF-8" standalone="no"?>
<svg width="1233px" height="124px" viewBox="0 0 1233 124" version="1.1" xmlns="http://www.w3.org/2000/svg" xmlns:xlink="http://www.w3.org/1999/xlink">
    <!-- Generator: Sketch 41 (35326) - http://www.bohemiancoding.com/sketch -->
    <title>Artboard</title>
    <desc>Created with Sketch.</desc>
    <defs></defs>
    <g id="Page-1" stroke="none" stroke-width="1" fill="none" fill-rule="evenodd">
        <g id="Artboard" stroke="#99CA45">
            <g id="Group-2" transform="translate(0.000000, 8.000000)">
                <path d="M1.1,118.4 L1.1,83.8 C1.1,88.2 0.5,92.7 1,97.1 C1.3,99.7 4.3,101 4.7,103.5 C4.9,104.6 4.8,105.5 5.3,106.5 C6.1,107.4 6.7,108.3 7.2,109.3 C7.2,110.3 7.4,111.3 7.6,112.3 C8.1,113.7 8.5,114.4 8.5,115.9" id="Shape"></path>
                <path d="M1.1,118.4 L1.1,83.8 C1.1,88.2 0.5,92.7 1,97.1 C1.3,99.7 4.3,101 4.7,103.5 C4.9,104.6 4.8,105.5 5.3,106.5 C6.1,107.4 6.7,108.3 7.2,109.3 C7.2,110.3 7.4,111.3 7.6,112.3 C8.1,113.7 8.5,114.4 8.5,115.9" id="Shape"></path>
                <path d="M168.6,118.4 L168.6,90.1 C168.6,93.7 168,97.4 168.5,100.9 C168.8,103.1 171.8,104.1 172.2,106.2 C172.4,107.1 172.3,107.8 172.8,108.7 C173.6,109.4 174.2,110.2 174.7,111 C174.7,111.8 174.9,112.7 175.1,113.5 C175.6,114.6 176,115.2 176,116.5" id="Shape"></path>
                <path d="M168.6,118.4 L168.6,90.1 C168.6,93.7 168,97.4 168.5,100.9 C168.8,103.1 171.8,104.1 172.2,106.2 C172.4,107.1 172.3,107.8 172.8,108.7 C173.6,109.4 174.2,110.2 174.7,111 C174.7,111.8 174.9,112.7 175.1,113.5 C175.6,114.6 176,115.2 176,116.5" id="Shape"></path>
                <path d="M477,118.4 L477,101.5 C477,103.6 476.4,105.9 476.9,108 C477.2,109.3 480.2,109.9 480.6,111.2 C480.8,111.7 480.7,112.2 481.2,112.7 C482,113.1 482.6,113.6 483.1,114 C483.1,114.5 483.3,115 483.5,115.5 C484,116.2 484.4,116.5 484.4,117.3" id="Shape"></path>
                <path d="M477,118.4 L477,101.5 C477,103.6 476.4,105.9 476.9,108 C477.2,109.3 480.2,109.9 480.6,111.2 C480.8,111.7 480.7,112.2 481.2,112.7 C482,113.1 482.6,113.6 483.1,114 C483.1,114.5 483.3,115 483.5,115.5 C484,116.2 484.4,116.5 484.4,117.3" id="Shape"></path>
                <path d="M785.4,116.6 L785.4,69.6 C785.4,75.5 784.8,81.7 785.3,87.6 C785.6,91.2 788.6,92.9 789,96.4 C789.2,97.9 789.1,99.1 789.6,100.5 C790.4,101.7 791,102.9 791.5,104.2 C791.5,105.6 791.7,107 791.9,108.3 C792.4,110.2 792.8,111.2 792.8,113.2" id="Shape"></path>
                <path d="M785.4,116.6 L785.4,69.6 C785.4,75.5 784.8,81.7 785.3,87.6 C785.6,91.2 788.6,92.9 789,96.4 C789.2,97.9 789.1,99.1 789.6,100.5 C790.4,101.7 791,102.9 791.5,104.2 C791.5,105.6 791.7,107 791.9,108.3 C792.4,110.2 792.8,111.2 792.8,113.2" id="Shape"></path>
                <path d="M11.8,79.4 L15.2,118.3" id="Shape"></path>
                <path d="M188.1,86.5 L191.4,118.3" id="Shape"></path>
                <path d="M496.5,99.3 L499.9,118.3" id="Shape"></path>
                <path d="M804.9,63.7 L808.3,116.5" id="Shape"></path>
                <path d="M23.5,66.2 L21.1,118.4" id="Shape"></path>
                <path d="M208.6,75.8 L206.2,118.4" id="Shape"></path>
                <path d="M517,92.8 L514.6,118.4" id="Shape"></path>
                <path d="M825.5,45.8 L823,116.5" id="Shape"></path>
                <path d="M29.9,77.8 L32.3,118.3" id="Shape"></path>
                <path d="M223.8,85.2 L226.2,118.3" id="Shape"></path>
                <path d="M532.2,98.5 L534.6,118.4" id="Shape"></path>
                <path d="M840.7,61.5 L843.1,116.5" id="Shape"></path>
                <path d="M41.1,85.2 L38.7,118.3" id="Shape"></path>
                <path d="M243.8,91.3 L241.4,118.3" id="Shape"></path>
                <path d="M552.3,102.1 L549.9,118.3" id="Shape"></path>
                <path d="M860.7,85.2 L858.3,118.3" id="Shape"></path>
                <path d="M53.8,96.4 L43.8,117.8" id="Shape"></path>
                <path d="M265.3,96.4 L255.2,117.8" id="Shape"></path>
                <path d="M573.7,107.7 L563.7,118" id="Shape"></path>
                <path d="M882.1,96.4 L872.1,117.8" id="Shape"></path>
                <path d="M59.2,75.3 L55.9,118.3" id="Shape"></path>
                <path d="M270.7,75.3 L267.4,118.3" id="Shape"></path>
                <path d="M579.2,97.2 L575.8,118.3" id="Shape"></path>
                <path d="M887.6,75.3 L884.3,118.3" id="Shape"></path>
                <path d="M73.3,79.1 L59.5,117.9" id="Shape"></path>
                <path d="M284.8,88.1 L271,118" id="Shape"></path>
                <path d="M593.2,99.2 L579.4,118.1" id="Shape"></path>
                <path d="M901.6,79.1 L887.9,117.9" id="Shape"></path>
                <path d="M79.7,94 L70.7,117.9" id="Shape"></path>
                <path d="M300,99.6 L291,118" id="Shape"></path>
                <path d="M608.5,111.6 L599.4,118.2" id="Shape"></path>
                <path d="M916.9,94 L907.9,117.9" id="Shape"></path>
                <path d="M81.9,110.2 L86.1,117.7" id="Shape"></path>
                <path d="M302.2,112.1 L306.4,117.8" id="Shape"></path>
                <path d="M919.1,110.2 L923.3,117.7" id="Shape"></path>
                <path d="M101.6,82.3 L84,117.7" id="Shape"></path>
                <path d="M339.6,90.6 L321.9,117.9" id="Shape"></path>
                <path d="M648,97.8 L630.4,117.9" id="Shape"></path>
                <path d="M956.4,82.3 L938.8,117.7" id="Shape"></path>
                <path d="M106.3,75.5 C102.5,77.8 99.6,94.2 99.3,95.9 C97.7,103.5 96.8,110.7 97.2,118.3" id="Shape"></path>
                <path d="M106.3,75.5 C102.5,77.8 99.6,94.2 99.3,95.9 C97.7,103.5 96.8,110.7 97.2,118.3" id="Shape"></path>
                <path d="M361.8,75.5 C358,77.8 355.1,94.2 354.8,95.9 C353.2,103.5 352.3,110.7 352.7,118.3" id="Shape"></path>
                <path d="M361.8,75.5 C358,77.8 355.1,94.2 354.8,95.9 C353.2,103.5 352.3,110.7 352.7,118.3" id="Shape"></path>
                <path d="M670.3,75.5 C666.5,77.8 663.6,94.2 663.3,95.9 C661.7,103.5 660.8,110.7 661.2,118.3" id="Shape"></path>
                <path d="M670.3,75.5 C666.5,77.8 663.6,94.2 663.3,95.9 C661.7,103.5 660.8,110.7 661.2,118.3" id="Shape"></path>
                <path d="M978.7,75.5 C974.9,77.8 972,94.2 971.7,95.9 C970.1,103.5 969.2,110.7 969.6,118.3" id="Shape"></path>
                <path d="M978.7,75.5 C974.9,77.8 972,94.2 971.7,95.9 C970.1,103.5 969.2,110.7 969.6,118.3" id="Shape"></path>
                <path d="M107.4,55.8 C107.7,67.8 108.4,79.8 109.2,91.8 C109.3,93.7 109.2,112.3 112.4,116.3 C112.9,116.1 113.3,116 113.8,115.8" id="Shape"></path>
                <path d="M107.4,55.8 C107.7,67.8 108.4,79.8 109.2,91.8 C109.3,93.7 109.2,112.3 112.4,116.3 C112.9,116.1 113.3,116 113.8,115.8" id="Shape"></path>
                <path d="M371.7,55.8 C372,67.8 372.7,79.8 373.5,91.8 C373.6,93.7 373.5,112.3 376.7,116.3 C377.2,116.1 377.6,116 378.1,115.8" id="Shape"></path>
                <path d="M371.7,55.8 C372,67.8 372.7,79.8 373.5,91.8 C373.6,93.7 373.5,112.3 376.7,116.3 C377.2,116.1 377.6,116 378.1,115.8" id="Shape"></path>
                <path d="M680.2,55.8 C680.5,67.8 681.2,79.8 682,91.8 C682.1,93.7 682,112.3 685.2,116.3 C685.7,116.1 686.1,116 686.6,115.8" id="Shape"></path>
                <path d="M680.2,55.8 C680.5,67.8 681.2,79.8 682,91.8 C682.1,93.7 682,112.3 685.2,116.3 C685.7,116.1 686.1,116 686.6,115.8" id="Shape"></path>
                <path d="M988.6,79.5 C988.9,86.9 989.6,94.4 990.4,101.8 C990.5,103 990.4,114.5 993.6,117 C994.1,116.9 994.5,116.8 995,116.7" id="Shape"></path>
                <path d="M988.6,79.5 C988.9,86.9 989.6,94.4 990.4,101.8 C990.5,103 990.4,114.5 993.6,117 C994.1,116.9 994.5,116.8 995,116.7" id="Shape"></path>
                <path d="M116.3,63.2 C115.8,77.2 116.8,91 119.3,104.8 C119.3,109.4 120.3,113.8 122.3,117.8" id="Shape"></path>
                <path d="M116.3,63.2 C115.8,77.2 116.8,91 119.3,104.8 C119.3,109.4 120.3,113.8 122.3,117.8" id="Shape"></path>
                <path d="M380.7,63.2 C380.2,77.2 381.2,91 383.7,104.8 C383.7,109.4 384.7,113.8 386.7,117.8" id="Shape"></path>
                <path d="M380.7,63.2 C380.2,77.2 381.2,91 383.7,104.8 C383.7,109.4 384.7,113.8 386.7,117.8" id="Shape"></path>
                <path d="M689.1,63.2 C688.6,77.2 689.6,91 692.1,104.8 C692.1,109.4 693.1,113.8 695.1,117.8" id="Shape"></path>
                <path d="M689.1,63.2 C688.6,77.2 689.6,91 692.1,104.8 C692.1,109.4 693.1,113.8 695.1,117.8" id="Shape"></path>
                <path d="M997.6,84.1 C997.1,92.7 998.1,101.3 1000.6,109.9 C1000.6,112.8 1001.6,115.5 1003.6,117.9" id="Shape"></path>
                <path d="M997.6,84.1 C997.1,92.7 998.1,101.3 1000.6,109.9 C1000.6,112.8 1001.6,115.5 1003.6,117.9" id="Shape"></path>
                <path d="M130.7,57.4 C128.2,77.6 126.5,97.8 125.5,118.1 C126.4,114.1 127.2,110.2 128.1,106.2" id="Shape"></path>
                <path d="M130.7,57.4 C128.2,77.6 126.5,97.8 125.5,118.1 C126.4,114.1 127.2,110.2 128.1,106.2" id="Shape"></path>
                <path d="M403.9,88.5 C401.4,98.4 399.7,108.3 398.7,118.2 L401.3,112.4" id="Shape"></path>
                <path d="M403.9,88.5 C401.4,98.4 399.7,108.3 398.7,118.2 L401.3,112.4" id="Shape"></path>
                <path d="M712.3,57.4 C709.8,77.6 708.1,97.8 707.1,118.1 C708,114.1 708.8,110.2 709.7,106.2" id="Shape"></path>
                <path d="M712.3,57.4 C709.8,77.6 708.1,97.8 707.1,118.1 C708,114.1 708.8,110.2 709.7,106.2" id="Shape"></path>
                <path d="M1020.7,80.6 C1018.2,93.1 1016.5,105.6 1015.5,118.2 C1016.4,115.7 1017.2,113.3 1018.1,110.8" id="Shape"></path>
                <path d="M1020.7,80.6 C1018.2,93.1 1016.5,105.6 1015.5,118.2 C1016.4,115.7 1017.2,113.3 1018.1,110.8" id="Shape"></path>
                <path d="M132.2,65.8 C131.6,80.7 130.2,94.5 136.1,108.9 C136.4,109.7 138.1,117.6 142.3,116.9" id="Shape"></path>
                <path d="M132.2,65.8 C131.6,80.7 130.2,94.5 136.1,108.9 C136.4,109.7 138.1,117.6 142.3,116.9" id="Shape"></path>
                <path d="M414.2,86.8 C413.6,95.7 412.2,104 418.1,112.7 C418.4,113.2 420.1,117.9 424.3,117.5" id="Shape"></path>
                <path d="M414.2,86.8 C413.6,95.7 412.2,104 418.1,112.7 C418.4,113.2 420.1,117.9 424.3,117.5" id="Shape"></path>
                <path d="M722.6,29.3 C722,54 720.6,77.1 726.5,101 C726.8,102.3 728.5,115.5 732.7,114.3" id="Shape"></path>
                <path d="M722.6,29.3 C722,54 720.6,77.1 726.5,101 C726.8,102.3 728.5,115.5 732.7,114.3" id="Shape"></path>
                <path d="M1031.1,78.5 C1030.5,89.8 1029.1,100.3 1035,111.2 C1035.3,111.8 1037,117.8 1041.2,117.3" id="Shape"></path>
                <path d="M1031.1,78.5 C1030.5,89.8 1029.1,100.3 1035,111.2 C1035.3,111.8 1037,117.8 1041.2,117.3" id="Shape"></path>
                <path d="M148.4,91.3 C146.4,98.3 142.1,108.2 143.3,115.8 C143.8,115.6 144.4,115.3 144.9,115.1" id="Shape"></path>
                <path d="M148.4,91.3 C146.4,98.3 142.1,108.2 143.3,115.8 C143.8,115.6 144.4,115.3 144.9,115.1" id="Shape"></path>
                <path d="M430.4,102.2 C428.4,106.4 424,112.3 425.3,116.9 C425.8,116.7 426.4,116.6 426.9,116.5" id="Shape"></path>
                <path d="M430.4,102.2 C428.4,106.4 424,112.3 425.3,116.9 C425.8,116.7 426.4,116.6 426.9,116.5" id="Shape"></path>
                <path d="M738.8,71.6 C736.8,83.3 732.5,99.8 733.7,112.5 C734.2,112.1 734.8,111.7 735.3,111.3" id="Shape"></path>
                <path d="M738.8,71.6 C736.8,83.3 732.5,99.8 733.7,112.5 C734.2,112.1 734.8,111.7 735.3,111.3" id="Shape"></path>
                <path d="M1047.2,97.9 C1045.2,103.2 1040.9,110.7 1042.1,116.5 C1042.6,116.3 1043.2,116.1 1043.7,115.9" id="Shape"></path>
                <path d="M1047.2,97.9 C1045.2,103.2 1040.9,110.7 1042.1,116.5 C1042.6,116.3 1043.2,116.1 1043.7,115.9" id="Shape"></path>
                <path d="M156.5,116 C156.2,116.6 155.6,117 154.8,117 C150.4,107.9 153.5,91.6 154,83.8" id="Shape"></path>
                <path d="M156.5,116 C156.2,116.6 155.6,117 154.8,117 C150.4,107.9 153.5,91.6 154,83.8" id="Shape"></path>
                <path d="M456.2,116.9 C455.9,117.3 455.3,117.5 454.5,117.5 C450.1,112.1 453.2,102.3 453.6,97.6" id="Shape"></path>
                <path d="M456.2,116.9 C455.9,117.3 455.3,117.5 454.5,117.5 C450.1,112.1 453.2,102.3 453.6,97.6" id="Shape"></path>
                <path d="M764.6,112.7 C764.3,113.8 763.7,114.3 762.9,114.3 C758.5,99.2 761.6,72.1 762.1,59.1" id="Shape"></path>
                <path d="M764.6,112.7 C764.3,113.8 763.7,114.3 762.9,114.3 C758.5,99.2 761.6,72.1 762.1,59.1" id="Shape"></path>
                <path d="M1073,116.6 C1072.7,117.1 1072.1,117.3 1071.3,117.3 C1066.9,110.4 1070,98 1070.5,92.1" id="Shape"></path>
                <path d="M1073,116.6 C1072.7,117.1 1072.1,117.3 1071.3,117.3 C1066.9,110.4 1070,98 1070.5,92.1" id="Shape"></path>
                <path d="M164.6,79.7 C161.5,92.7 161.2,105.5 163.8,118.3" id="Shape"></path>
                <path d="M164.6,79.7 C161.5,92.7 161.2,105.5 163.8,118.3" id="Shape"></path>
                <path d="M473,95.2 C469.8,103 469.6,110.7 472.2,118.3" id="Shape"></path>
                <path d="M473,95.2 C469.8,103 469.6,110.7 472.2,118.3" id="Shape"></path>
                <path d="M781.5,52.2 C778.4,73.8 778.1,95.2 780.7,116.3" id="Shape"></path>
                <path d="M781.5,52.2 C778.4,73.8 778.1,95.2 780.7,116.3" id="Shape"></path>
                <path d="M1089.9,89 C1086.8,98.9 1086.5,108.6 1089.1,118.3" id="Shape"></path>
                <path d="M1089.9,89 C1086.8,98.9 1086.5,108.6 1089.1,118.3" id="Shape"></path>
                <path d="M180.1,95.1 C180.1,102.1 180.5,109.1 181.3,116 C181.5,115.9 181.7,115.9 181.9,115.8" id="Shape"></path>
                <path d="M180.1,95.1 C180.1,102.1 180.5,109.1 181.3,116 C181.5,115.9 181.7,115.9 181.9,115.8" id="Shape"></path>
                <path d="M488.6,104.4 C488.6,108.6 489,112.8 489.8,116.9 C490,116.9 490.2,116.8 490.4,116.8" id="Shape"></path>
                <path d="M488.6,104.4 C488.6,108.6 489,112.8 489.8,116.9 C490,116.9 490.2,116.8 490.4,116.8" id="Shape"></path>
                <path d="M797,89.8 C797,98.4 797.4,107 798.2,115.5 C798.4,115.4 798.6,115.3 798.8,115.3" id="Shape"></path>
                <path d="M797,89.8 C797,98.4 797.4,107 798.2,115.5 C798.4,115.4 798.6,115.3 798.8,115.3" id="Shape"></path>
                <path d="M1096.6,100.7 C1096.6,106 1097,111.3 1097.8,116.6 C1098,116.6 1098.2,116.5 1098.4,116.5" id="Shape"></path>
                <path d="M1096.6,100.7 C1096.6,106 1097,111.3 1097.8,116.6 C1098,116.6 1098.2,116.5 1098.4,116.5" id="Shape"></path>
                <path d="M202.4,66.9 L197.3,94.7 C193.5,102.2 193.8,109.1 198.4,115.5 C199.7,114 201.1,112.5 202.4,111" id="Shape"></path>
                <path d="M202.4,66.9 L197.3,94.7 C193.5,102.2 193.8,109.1 198.4,115.5 C199.7,114 201.1,112.5 202.4,111" id="Shape"></path>
                <path d="M510.9,87.5 C509.2,93.1 507.5,98.6 505.8,104.2 C502,108.7 502.3,112.9 506.9,116.7 L510.9,114" id="Shape"></path>
                <path d="M510.9,87.5 C509.2,93.1 507.5,98.6 505.8,104.2 C502,108.7 502.3,112.9 506.9,116.7 L510.9,114" id="Shape"></path>
                <path d="M819.3,31.1 C817.6,46.5 815.9,61.9 814.2,77.3 C810.4,89.8 810.7,101.3 815.3,111.9 C816.6,109.4 818,106.9 819.3,104.4" id="Shape"></path>
                <path d="M819.3,31.1 C817.6,46.5 815.9,61.9 814.2,77.3 C810.4,89.8 810.7,101.3 815.3,111.9 C816.6,109.4 818,106.9 819.3,104.4" id="Shape"></path>
                <path d="M1110.1,79.3 C1108.4,86.3 1106.7,93.4 1105,100.4 C1101.2,106.1 1101.5,111.4 1106.1,116.2 C1107.4,115.1 1108.8,113.9 1110.1,112.8" id="Shape"></path>
                <path d="M1110.1,79.3 C1108.4,86.3 1106.7,93.4 1105,100.4 C1101.2,106.1 1101.5,111.4 1106.1,116.2 C1107.4,115.1 1108.8,113.9 1110.1,112.8" id="Shape"></path>
                <path d="M212.4,79.2 C211.2,89.8 212,100.2 214.7,110.6 C216.4,113.1 218.3,115.4 220.6,117.6" id="Shape"></path>
                <path d="M212.4,79.2 C211.2,89.8 212,100.2 214.7,110.6 C216.4,113.1 218.3,115.4 220.6,117.6" id="Shape"></path>
                <path d="M520.9,94.9 C519.7,101.2 520.5,107.5 523.2,113.7 C524.9,115.2 526.8,116.6 529.1,117.9" id="Shape"></path>
                <path d="M520.9,94.9 C519.7,101.2 520.5,107.5 523.2,113.7 C524.9,115.2 526.8,116.6 529.1,117.9" id="Shape"></path>
                <path d="M829.3,51.5 C828.1,69.1 828.9,86.5 831.6,103.7 C833.3,107.8 835.2,111.7 837.4,115.4" id="Shape"></path>
                <path d="M829.3,51.5 C828.1,69.1 828.9,86.5 831.6,103.7 C833.3,107.8 835.2,111.7 837.4,115.4" id="Shape"></path>
                <path d="M1111.3,88.6 C1110.1,96.6 1110.9,104.5 1113.6,112.4 C1115.3,114.3 1117.2,116 1119.5,117.7" id="Shape"></path>
                <path d="M1111.3,88.6 C1110.1,96.6 1110.9,104.5 1113.6,112.4 C1115.3,114.3 1117.2,116 1119.5,117.7" id="Shape"></path>
                <path d="M223.1,55.4 C227.8,63.5 234.5,71.3 237.9,79.7 C241.6,88.7 240.2,98 241.5,107.2 C241.9,109.7 241.6,115.5 244.5,117.3" id="Shape"></path>
                <path d="M223.1,55.4 C227.8,63.5 234.5,71.3 237.9,79.7 C241.6,88.7 240.2,98 241.5,107.2 C241.9,109.7 241.6,115.5 244.5,117.3" id="Shape"></path>
                <path d="M531.5,80.6 C536.2,85.4 542.9,90.1 546.3,95.2 C550,100.6 548.6,106.2 549.9,111.7 C550.3,113.2 550,116.7 552.9,117.7" id="Shape"></path>
                <path d="M531.5,80.6 C536.2,85.4 542.9,90.1 546.3,95.2 C550,100.6 548.6,106.2 549.9,111.7 C550.3,113.2 550,116.7 552.9,117.7" id="Shape"></path>
                <path d="M840,0.3 C844.7,15.2 851.3,29.8 854.8,45.3 C858.5,61.9 857.1,79.2 858.4,96.2 C858.8,100.9 858.5,111.6 861.4,114.9" id="Shape"></path>
                <path d="M840,0.3 C844.7,15.2 851.3,29.8 854.8,45.3 C858.5,61.9 857.1,79.2 858.4,96.2 C858.8,100.9 858.5,111.6 861.4,114.9" id="Shape"></path>
                <path d="M1113.2,70.6 C1117.9,76.7 1124.6,82.7 1128,89 C1131.7,95.8 1130.3,102.9 1131.6,109.9 C1132,111.8 1131.7,116.2 1134.6,117.5" id="Shape"></path>
                <path d="M1113.2,70.6 C1117.9,76.7 1124.6,82.7 1128,89 C1131.7,95.8 1130.3,102.9 1131.6,109.9 C1132,111.8 1131.7,116.2 1134.6,117.5" id="Shape"></path>
                <path d="M245.5,76.3 C247.2,81.1 248.6,85.9 249.9,90.7 C251.7,97.2 255.1,105.6 254.9,112.5 C254.8,114.9 254.8,115.6 257.5,117.3" id="Shape"></path>
                <path d="M245.5,76.3 C247.2,81.1 248.6,85.9 249.9,90.7 C251.7,97.2 255.1,105.6 254.9,112.5 C254.8,114.9 254.8,115.6 257.5,117.3" id="Shape"></path>
                <path d="M553.9,93.2 C555.6,96 557,98.9 558.3,101.8 C560.1,105.7 563.5,110.7 563.3,114.9 C563.2,116.3 563.2,116.8 565.9,117.8" id="Shape"></path>
                <path d="M553.9,93.2 C555.6,96 557,98.9 558.3,101.8 C560.1,105.7 563.5,110.7 563.3,114.9 C563.2,116.3 563.2,116.8 565.9,117.8" id="Shape"></path>
                <path d="M862.4,66.9 C864.1,72.7 865.5,78.6 866.7,84.5 C868.5,92.5 871.8,102.8 871.7,111.2 C871.6,114.2 871.6,115 874.3,117.1" id="Shape"></path>
                <path d="M862.4,66.9 C864.1,72.7 865.5,78.6 866.7,84.5 C868.5,92.5 871.8,102.8 871.7,111.2 C871.6,114.2 871.6,115 874.3,117.1" id="Shape"></path>
                <path d="M1126.8,66.9 C1128.5,72.7 1129.9,78.6 1131.1,84.5 C1132.9,92.5 1136.2,102.8 1136.1,111.2 C1136,114.2 1136,115 1138.7,117.1" id="Shape"></path>
                <path d="M1126.8,66.9 C1128.5,72.7 1129.9,78.6 1131.1,84.5 C1132.9,92.5 1136.2,102.8 1136.1,111.2 C1136,114.2 1136,115 1138.7,117.1" id="Shape"></path>
                <path d="M282.6,70.4 C282.5,83.5 286.8,96.4 289.6,109.3 C290.3,112.5 290.9,115.2 290.7,118.3" id="Shape"></path>
                <path d="M282.6,70.4 C282.5,83.5 286.8,96.4 289.6,109.3 C290.3,112.5 290.9,115.2 290.7,118.3" id="Shape"></path>
                <path d="M591,100.9 C590.9,105.7 595.2,110.3 598,115 C598.7,116.2 599.3,117.1 599.1,118.3" id="Shape"></path>
                <path d="M591,100.9 C590.9,105.7 595.2,110.3 598,115 C598.7,116.2 599.3,117.1 599.1,118.3" id="Shape"></path>
                <path d="M899.5,56.3 C899.4,73.3 903.7,89.9 906.5,106.7 C907.2,110.8 907.8,114.3 907.6,118.4" id="Shape"></path>
                <path d="M899.5,56.3 C899.4,73.3 903.7,89.9 906.5,106.7 C907.2,110.8 907.8,114.3 907.6,118.4" id="Shape"></path>
                <path d="M1137.4,56.3 C1137.3,73.3 1141.6,89.9 1144.4,106.7 C1145.1,110.8 1145.7,114.3 1145.5,118.4" id="Shape"></path>
                <path d="M1137.4,56.3 C1137.3,73.3 1141.6,89.9 1144.4,106.7 C1145.1,110.8 1145.7,114.3 1145.5,118.4" id="Shape"></path>
                <path d="M312.5,53.7 C313.2,75.2 312.9,96.7 312.4,118.2 C312.9,116.5 313.4,114.8 314,113.2" id="Shape"></path>
                <path d="M312.5,53.7 C313.2,75.2 312.9,96.7 312.4,118.2 C312.9,116.5 313.4,114.8 314,113.2" id="Shape"></path>
                <path d="M620.9,70.4 C621.6,86.4 621.3,102.3 620.8,118.2 C621.3,116.9 621.8,115.7 622.4,114.5" id="Shape"></path>
                <path d="M620.9,70.4 C621.6,86.4 621.3,102.3 620.8,118.2 C621.3,116.9 621.8,115.7 622.4,114.5" id="Shape"></path>
                <path d="M929.3,34.6 C930,62.5 929.7,90.3 929.2,118.2 C929.7,116 930.2,113.8 930.8,111.7" id="Shape"></path>
                <path d="M929.3,34.6 C930,62.5 929.7,90.3 929.2,118.2 C929.7,116 930.2,113.8 930.8,111.7" id="Shape"></path>
                <path d="M1149.6,34.6 C1150.3,62.5 1150,90.3 1149.5,118.2 C1150,116 1150.5,113.8 1151.1,111.7" id="Shape"></path>
                <path d="M1149.6,34.6 C1150.3,62.5 1150,90.3 1149.5,118.2 C1150,116 1150.5,113.8 1151.1,111.7" id="Shape"></path>
                <path d="M328.9,59.9 C320.9,78.2 314.6,97.2 314.9,116.4 C315.9,116.2 315.9,115.5 315.1,114.5" id="Shape"></path>
                <path d="M328.9,59.9 C320.9,78.2 314.6,97.2 314.9,116.4 C315.9,116.2 315.9,115.5 315.1,114.5" id="Shape"></path>
                <path d="M637.4,75.1 C629.4,88.6 623.1,102.7 623.4,117 C624.4,116.8 624.4,116.3 623.6,115.6" id="Shape"></path>
                <path d="M637.4,75.1 C629.4,88.6 623.1,102.7 623.4,117 C624.4,116.8 624.4,116.3 623.6,115.6" id="Shape"></path>
                <path d="M945.8,42.7 C937.8,66.4 931.5,91.1 931.8,116 C932.8,115.7 932.8,114.8 932,113.5" id="Shape"></path>
                <path d="M945.8,42.7 C937.8,66.4 931.5,91.1 931.8,116 C932.8,115.7 932.8,114.8 932,113.5" id="Shape"></path>
                <path d="M1166.1,63.8 C1158.1,80.9 1151.8,98.7 1152.1,116.6 C1153.1,116.4 1153.1,115.8 1152.3,114.8" id="Shape"></path>
                <path d="M1166.1,63.8 C1158.1,80.9 1151.8,98.7 1152.1,116.6 C1153.1,116.4 1153.1,115.8 1152.3,114.8" id="Shape"></path>
                <path d="M349.4,67.4 C348.7,84.4 347.2,101.4 347.5,118.4 L347.5,102.1" id="Shape"></path>
                <path d="M349.4,67.4 C348.7,84.4 347.2,101.4 347.5,118.4 L347.5,102.1" id="Shape"></path>
                <path d="M657.8,67.4 C657.1,84.4 655.6,101.4 655.9,118.4 L655.9,102.1" id="Shape"></path>
                <path d="M657.8,67.4 C657.1,84.4 655.6,101.4 655.9,118.4 L655.9,102.1" id="Shape"></path>
                <path d="M966.2,67.4 C965.5,84.4 964,101.4 964.3,118.4 L964.3,102.1" id="Shape"></path>
                <path d="M966.2,67.4 C965.5,84.4 964,101.4 964.3,118.4 L964.3,102.1" id="Shape"></path>
                <path d="M1177.7,81.6 C1177,93.9 1175.5,106.1 1175.8,118.4 L1175.8,106.6" id="Shape"></path>
                <path d="M1177.7,81.6 C1177,93.9 1175.5,106.1 1175.8,118.4 L1175.8,106.6" id="Shape"></path>
                <path d="M339.4,118.4 L339.4,73.7 L339.4,118.4 Z" id="Shape"></path>
                <path d="M339.4,73.7 L339.4,118.4" id="Shape"></path>
                <path d="M648,118.4 L648,60.5 L648,118.4 Z" id="Shape"></path>
                <path d="M648,60.5 L648,118.4" id="Shape"></path>
                <path d="M956.6,118.4 L956.6,60.5 L956.6,118.4 Z" id="Shape"></path>
                <path d="M956.6,60.5 L956.6,118.4" id="Shape"></path>
                <path d="M1168.2,118.4 L1168.2,76.6 L1168.2,118.4 Z" id="Shape"></path>
                <path d="M1168.2,76.6 L1168.2,118.4" id="Shape"></path>
                <path d="M365.8,57.4 L365.8,100.2 C365.8,100.6 365.2,115.5 365.9,118.3 C366.1,117.1 366.2,115.9 366.4,114.8" id="Shape"></path>
                <path d="M365.8,57.4 L365.8,100.2 C365.8,100.6 365.2,115.5 365.9,118.3 C366.1,117.1 366.2,115.9 366.4,114.8" id="Shape"></path>
                <path d="M674.2,57.4 L674.2,100.2 C674.2,100.6 673.6,115.5 674.3,118.3 C674.5,117.1 674.6,115.9 674.8,114.8" id="Shape"></path>
                <path d="M674.2,57.4 L674.2,100.2 C674.2,100.6 673.6,115.5 674.3,118.3 C674.5,117.1 674.6,115.9 674.8,114.8" id="Shape"></path>
                <path d="M982.7,80.5 L982.7,106.8 C982.7,107 982.1,116.2 982.8,118 C983,117.3 983.1,116.5 983.3,115.8" id="Shape"></path>
                <path d="M982.7,80.5 L982.7,106.8 C982.7,107 982.1,116.2 982.8,118 C983,117.3 983.1,116.5 983.3,115.8" id="Shape"></path>
                <path d="M1185.4,57.4 L1185.4,100.2 C1185.4,100.6 1184.8,115.5 1185.5,118.3 C1185.7,117.1 1185.8,115.9 1186,114.8" id="Shape"></path>
                <path d="M1185.4,57.4 L1185.4,100.2 C1185.4,100.6 1184.8,115.5 1185.5,118.3 C1185.7,117.1 1185.8,115.9 1186,114.8" id="Shape"></path>
                <path d="M391.5,49.7 C392.1,72.6 392.8,95.5 393.4,118.3" id="Shape"></path>
                <path d="M391.5,49.7 C392.1,72.6 392.8,95.5 393.4,118.3" id="Shape"></path>
                <path d="M701.8,118.4 L699.9,49.8 L701.8,118.4 Z" id="Shape"></path>
                <path d="M699.9,49.7 L701.8,118.4" id="Shape"></path>
                <path d="M1008.3,75.8 C1008.9,90 1009.6,104.2 1010.2,118.4" id="Shape"></path>
                <path d="M1008.3,75.8 C1008.9,90 1009.6,104.2 1010.2,118.4" id="Shape"></path>
                <path d="M750.9,30.4 C751.5,61.4 752.2,92.5 752.8,123.5" id="Shape"></path>
                <path d="M750.9,30.4 C751.5,61.4 752.2,92.5 752.8,123.5" id="Shape"></path>
                <path d="M1193.4,49.7 C1194,72.6 1194.7,95.5 1195.3,118.3" id="Shape"></path>
                <path d="M1193.4,49.7 C1194,72.6 1194.7,95.5 1195.3,118.3" id="Shape"></path>
                <path d="M444.7,114.2 C444,115.6 443.6,117 443.5,118.4 C444,110.7 445.3,103.2 447.3,95.6" id="Shape"></path>
                <path d="M444.7,114.2 C444,115.6 443.6,117 443.5,118.4 C444,110.7 445.3,103.2 447.3,95.6" id="Shape"></path>
                <path d="M753.1,105 C752.4,108.8 752,112.7 751.9,116.6 C752.4,95.4 753.7,74.5 755.7,53.4" id="Shape"></path>
                <path d="M753.1,105 C752.4,108.8 752,112.7 751.9,116.6 C752.4,95.4 753.7,74.5 755.7,53.4" id="Shape"></path>
                <path d="M1061.5,113.1 C1060.8,114.8 1060.4,116.6 1060.3,118.4 C1060.8,108.7 1062.1,99.1 1064.1,89.5" id="Shape"></path>
                <path d="M1061.5,113.1 C1060.8,114.8 1060.4,116.6 1060.3,118.4 C1060.8,108.7 1062.1,99.1 1064.1,89.5" id="Shape"></path>
                <path d="M1220.1,109.8 C1219.4,112.6 1219,115.4 1218.9,118.3 C1219.4,102.7 1220.7,87.2 1222.7,71.7" id="Shape"></path>
                <path d="M1220.1,109.8 C1219.4,112.6 1219,115.4 1218.9,118.3 C1219.4,102.7 1220.7,87.2 1222.7,71.7" id="Shape"></path>
                <path d="M403.6,116.4 C404.2,110.5 405.8,104.7 406.9,98.8 C407.5,95.3 407.5,91.8 408.4,88.3 C409.1,85.8 410.7,83 410.9,80.5 C410.7,85.2 412.6,89.8 412.9,94.5 C413.2,99.9 413,105.4 412.8,110.9 C412.7,113.2 414.5,114.5 415.9,116.6 C416.4,117.3 416.5,117.8 416.5,118.6" id="Shape"></path>
                <path d="M403.6,116.4 C404.2,110.5 405.8,104.7 406.9,98.8 C407.5,95.3 407.5,91.8 408.4,88.3 C409.1,85.8 410.7,83 410.9,80.5 C410.7,85.2 412.6,89.8 412.9,94.5 C413.2,99.9 413,105.4 412.8,110.9 C412.7,113.2 414.5,114.5 415.9,116.6 C416.4,117.3 416.5,117.8 416.5,118.6" id="Shape"></path>
                <path d="M712.1,114.3 C712.7,102.3 714.3,90.4 715.4,78.4 C716,71.3 716,64.1 716.9,57 C717.6,51.8 719.2,46.3 719.4,41.1 C719.2,50.7 721.1,60 721.3,69.6 C721.6,80.7 721.4,91.9 721.2,102.9 C721.1,107.5 722.9,110.2 724.3,114.4 C724.8,115.9 724.9,116.8 724.9,118.4" id="Shape"></path>
                <path d="M712.1,114.3 C712.7,102.3 714.3,90.4 715.4,78.4 C716,71.3 716,64.1 716.9,57 C717.6,51.8 719.2,46.3 719.4,41.1 C719.2,50.7 721.1,60 721.3,69.6 C721.6,80.7 721.4,91.9 721.2,102.9 C721.1,107.5 722.9,110.2 724.3,114.4 C724.8,115.9 724.9,116.8 724.9,118.4" id="Shape"></path>
                <path d="M1020.5,115.8 C1021.1,108.4 1022.7,101 1023.8,93.6 C1024.4,89.2 1024.4,84.7 1025.3,80.3 C1026,77.1 1027.6,73.6 1027.8,70.4 C1027.6,76.3 1029.5,82.1 1029.8,88.1 C1030.1,95 1029.9,101.9 1029.7,108.8 C1029.6,111.7 1031.4,113.3 1032.8,116 C1033.3,116.9 1033.4,117.5 1033.4,118.5" id="Shape"></path>
                <path d="M1020.5,115.8 C1021.1,108.4 1022.7,101 1023.8,93.6 C1024.4,89.2 1024.4,84.7 1025.3,80.3 C1026,77.1 1027.6,73.6 1027.8,70.4 C1027.6,76.3 1029.5,82.1 1029.8,88.1 C1030.1,95 1029.9,101.9 1029.7,108.8 C1029.6,111.7 1031.4,113.3 1032.8,116 C1033.3,116.9 1033.4,117.5 1033.4,118.5" id="Shape"></path>
                <path d="M1196.8,114.3 C1197.4,102.3 1199,90.4 1200.1,78.4 C1200.7,71.3 1200.7,64.1 1201.6,57 C1202.3,51.8 1203.9,46.3 1204.1,41.1 C1203.9,50.7 1205.8,60 1206,69.6 C1206.3,80.7 1206.1,91.9 1205.9,102.9 C1205.8,107.5 1207.6,110.2 1209,114.4 C1209.5,115.9 1209.6,116.8 1209.6,118.4" id="Shape"></path>
                <path d="M1196.8,114.3 C1197.4,102.3 1199,90.4 1200.1,78.4 C1200.7,71.3 1200.7,64.1 1201.6,57 C1202.3,51.8 1203.9,46.3 1204.1,41.1 C1203.9,50.7 1205.8,60 1206,69.6 C1206.3,80.7 1206.1,91.9 1205.9,102.9 C1205.8,107.5 1207.6,110.2 1209,114.4 C1209.5,115.9 1209.6,116.8 1209.6,118.4" id="Shape"></path>
                <path d="M435.7,83.9 C435.2,90.2 436.3,96.8 436.5,103.2 C436.6,108.2 437.7,113.5 437.3,118.5" id="Shape"></path>
                <path d="M435.7,83.9 C435.2,90.2 436.3,96.8 436.5,103.2 C436.6,108.2 437.7,113.5 437.3,118.5" id="Shape"></path>
                <path d="M744.2,21.1 C743.7,38.6 744.8,56.8 745,74.4 C745.1,88.2 746.2,102.8 745.8,116.6" id="Shape"></path>
                <path d="M744.2,21.1 C743.7,38.6 744.8,56.8 745,74.4 C745.1,88.2 746.2,102.8 745.8,116.6" id="Shape"></path>
                <path d="M1052.6,74.7 C1052.1,82.7 1053.2,91 1053.4,99.1 C1053.5,105.4 1054.6,112.1 1054.2,118.4" id="Shape"></path>
                <path d="M1052.6,74.7 C1052.1,82.7 1053.2,91 1053.4,99.1 C1053.5,105.4 1054.6,112.1 1054.2,118.4" id="Shape"></path>
                <path d="M1211.2,48 C1210.7,60.9 1211.8,74.3 1212,87.3 C1212.1,97.4 1213.2,108.2 1212.8,118.4" id="Shape"></path>
                <path d="M1211.2,48 C1210.7,60.9 1211.8,74.3 1212,87.3 C1212.1,97.4 1213.2,108.2 1212.8,118.4" id="Shape"></path>
                <path d="M460.2,82.3 C462.6,87.1 464.3,92 465.3,97 C465.9,100.8 465.4,104.7 465.4,108.5 C465.4,111.8 464.3,115.1 464.5,118.4" id="Shape"></path>
                <path d="M460.2,82.3 C462.6,87.1 464.3,92 465.3,97 C465.9,100.8 465.4,104.7 465.4,108.5 C465.4,111.8 464.3,115.1 464.5,118.4" id="Shape"></path>
                <path d="M768.7,16.7 C771.1,30.1 772.8,43.7 773.8,57.4 C774.4,68 773.9,78.6 773.9,89.2 C773.9,98.4 772.8,107.5 773,116.7" id="Shape"></path>
                <path d="M768.7,16.7 C771.1,30.1 772.8,43.7 773.8,57.4 C774.4,68 773.9,78.6 773.9,89.2 C773.9,98.4 772.8,107.5 773,116.7" id="Shape"></path>
                <path d="M1077.1,72.7 C1079.5,78.8 1081.2,85 1082.2,91.3 C1082.8,96.1 1082.3,101 1082.3,105.8 C1082.3,110 1081.2,114.2 1081.4,118.4" id="Shape"></path>
                <path d="M1077.1,72.7 C1079.5,78.8 1081.2,85 1082.2,91.3 C1082.8,96.1 1082.3,101 1082.3,105.8 C1082.3,110 1081.2,114.2 1081.4,118.4" id="Shape"></path>
                <path d="M1226.9,44.7 C1229.3,54.6 1231,64.6 1232,74.7 C1232.6,82.5 1232.1,90.3 1232.1,98.1 C1232.1,104.9 1231,111.6 1231.2,118.3" id="Shape"></path>
                <path d="M1226.9,44.7 C1229.3,54.6 1231,64.6 1232,74.7 C1232.6,82.5 1232.1,90.3 1232.1,98.1 C1232.1,104.9 1231,111.6 1231.2,118.3" id="Shape"></path>
            </g>
        </g>
    </g>
</svg>