<?xml version="1.0" encoding="UTF-8" standalone="no"?>
<svg width="155px" height="63px" viewBox="0 0 155 63" version="1.1" xmlns="http://www.w3.org/2000/svg" xmlns:xlink="http://www.w3.org/1999/xlink">
    <!-- Generator: Sketch 41 (35326) - http://www.bohemiancoding.com/sketch -->
    <title>Artboard</title>
    <desc>Created with Sketch.</desc>
    <defs></defs>
    <g id="Page-1" stroke="none" stroke-width="1" fill="none" fill-rule="evenodd">
        <g id="Artboard">
            <path d="M5,9 L11.844,57.695" id="Stroke-762" stroke="#FF0000" stroke-width="8.825" stroke-linecap="round" stroke-linejoin="round"></path>
            <path d="M41.364,53.052 L20,37" id="Stroke-764" stroke="#FF0000" stroke-width="8.825" stroke-linecap="round" stroke-linejoin="round"></path>
            <path d="M34.112,5 L18,26.319" id="Stroke-766" stroke="#FF0000" stroke-width="8.825" stroke-linecap="round" stroke-linejoin="round"></path>
            <path d="M62.1837895,11.6720057 C64.8417895,12.0460057 67.2987895,10.1940057 67.6717895,7.53600566 C68.0457895,4.87900566 66.1937895,2.42200566 63.5367895,2.04800566 C60.8787895,1.67400566 58.4217895,3.52600566 58.0477895,6.18400566 C57.6747895,8.84100566 59.5257895,11.2980057 62.1837895,11.6720057" id="Fill-768" fill="#8BCB3D"></path>
            <path d="M59.468,29 L56,53.678" id="Stroke-771" stroke="#8BCB3D" stroke-width="8.825" stroke-linecap="round" stroke-linejoin="round"></path>
            <path d="M78,8.89 L105.678,5" id="Stroke-772" stroke="#00D3FF" stroke-width="8.825" stroke-linecap="round" stroke-linejoin="round"></path>
            <path d="M94,18 L99.238,55.269" id="Stroke-773" stroke="#00D3FF" stroke-width="8.825" stroke-linecap="round" stroke-linejoin="round"></path>
            <g id="Group-776" transform="translate(124.000000, 5.000000)">
                <path d="M15.0671,0.493 C8.2321,-0.468 1.8981,4.402 0.9191,11.368" id="Fill-774" fill="#8BCB3D"></path>
                <path d="M15.0671,0.493 C8.2321,-0.468 1.8981,4.402 0.9191,11.368" id="Stroke-775" stroke="#FFDA00" stroke-width="8.825" stroke-linecap="round" stroke-linejoin="round"></path>
            </g>
            <g id="Group-779" transform="translate(121.000000, 40.000000)">
                <path d="M11.0754,15.242 C4.2404,14.281 -0.5066,7.855 0.4734,0.888" id="Fill-777" fill="#8BCB3D"></path>
                <path d="M11.0754,15.242 C4.2404,14.281 -0.5066,7.855 0.4734,0.888" id="Stroke-778" stroke="#FFDA00" stroke-width="8.825" stroke-linecap="round" stroke-linejoin="round"></path>
            </g>
            <g id="Group-782" transform="translate(139.000000, 5.000000)">
                <path d="M10.9414,14.641 C11.9014,7.806 7.0334,1.472 0.0664,0.493" id="Fill-780" fill="#8BCB3D"></path>
                <path d="M10.9414,14.641 C11.9014,7.806 7.0334,1.472 0.0664,0.493" id="Stroke-781" stroke="#FFDA00" stroke-width="8.825" stroke-linecap="round" stroke-linejoin="round"></path>
            </g>
            <g id="Group-785" transform="translate(140.000000, 32.000000)">
                <path d="M6.4258,12.653 C7.1248,7.679 4.7368,2.97 0.6988,0.397" id="Fill-783" fill="#8BCB3D"></path>
                <path d="M6.4258,12.653 C7.1248,7.679 4.7368,2.97 0.6988,0.397" id="Stroke-784" stroke="#FFDA00" stroke-width="8.825" stroke-linecap="round" stroke-linejoin="round"></path>
            </g>
            <g id="Group-788" transform="translate(132.000000, 44.000000)">
                <path d="M14.4282,0.639 C13.4682,7.474 7.0412,12.221 0.0742,11.241" id="Fill-786" fill="#8BCB3D"></path>
                <path d="M14.4282,0.639 C13.4682,7.474 7.0412,12.221 0.0742,11.241" id="Stroke-787" stroke="#FFDA00" stroke-width="8.825" stroke-linecap="round" stroke-linejoin="round"></path>
            </g>
            <g id="Group-791" transform="translate(124.000000, 16.000000)">
                <path d="M6.6774,12.657 C2.6284,10.083 0.2344,5.238 0.9564,0.098" id="Fill-789" fill="#8BCB3D"></path>
                <path d="M6.6774,12.657 C2.6284,10.083 0.2344,5.238 0.9564,0.098" id="Stroke-790" stroke="#FFDA00" stroke-width="8.825" stroke-linecap="round" stroke-linejoin="round"></path>
            </g>
        </g>
    </g>
</svg>