<svg id="Ebene_1" data-name="Ebene 1" xmlns="http://www.w3.org/2000/svg" viewBox="0 0 71.59 26.13"><defs><style>.cls-1{fill:#ed2224;}.cls-2{fill:none;stroke:#ffd400;stroke-linecap:round;stroke-linejoin:round;stroke-width:10.08px;}.cls-3{fill:#99ca45;}.cls-4{fill:#4fc6e0;}.cls-5{fill:#ffd400;}</style></defs><title>KITS_Kita_web</title><path class="cls-1" d="M22.4,44.14a1.94,1.94,0,0,1-1.94-1.94V20.51a1.94,1.94,0,1,1,3.88,0V42.2A1.94,1.94,0,0,1,22.4,44.14Z" transform="translate(-20.46 -18.29)"/><path class="cls-1" d="M35.47,44.14a1.93,1.93,0,0,1-1.37-.57l-8.47-8.44a1.94,1.94,0,0,1,2.74-2.75l8.47,8.44a1.94,1.94,0,0,1-1.37,3.31Z" transform="translate(-20.46 -18.29)"/><path class="cls-1" d="M27,30.9a1.94,1.94,0,0,1-1.37-3.31l8.47-8.44a1.94,1.94,0,0,1,2.74,2.75l-8.47,8.44A1.93,1.93,0,0,1,27,30.9Z" transform="translate(-20.46 -18.29)"/><path class="cls-2" d="M71,30.27" transform="translate(-20.46 -18.29)"/><circle class="cls-3" cx="48.45" cy="20.92" r="2.46" transform="translate(-0.98 46.73) rotate(-80.05)"/><path class="cls-3" d="M44.41,43.94a1.94,1.94,0,0,1-1.58-2.25l1.93-11a1.94,1.94,0,1,1,3.82.67l-1.93,11A1.94,1.94,0,0,1,44.41,43.94Z" transform="translate(-20.46 -18.29)"/><path class="cls-4" d="M68.91,22.14,56.82,24.34a1.94,1.94,0,0,1-.69-3.82l12.09-2.19a1.94,1.94,0,0,1,.69,3.82Z" transform="translate(-20.46 -18.29)"/><path class="cls-4" d="M66.71,44.39a1.94,1.94,0,0,1-2.25-1.56l-3-16.47a1.94,1.94,0,1,1,3.82-.69l3,16.47A1.94,1.94,0,0,1,66.71,44.39Z" transform="translate(-20.46 -18.29)"/><path class="cls-5" d="M80.64,32.19a1.93,1.93,0,0,1-.81-.38,7.53,7.53,0,1,1,12.06-4.36,1.94,1.94,0,1,1-3.8-.79,3.65,3.65,0,1,0-5.85,2.12,1.94,1.94,0,0,1-1.61,3.42Z" transform="translate(-20.46 -18.29)"/><path class="cls-5" d="M80.36,44.16a7.54,7.54,0,0,1-5.83-8.92,1.94,1.94,0,1,1,3.8.79,3.65,3.65,0,1,0,5.84-2.13,1.94,1.94,0,1,1,2.4-3,7.53,7.53,0,0,1-6.2,13.29Z" transform="translate(-20.46 -18.29)"/><path class="cls-2" d="M75.56,31.83" transform="translate(-20.46 -18.29)"/></svg>