<svg width="164" height="69" viewBox="0 0 164 69" xmlns="http://www.w3.org/2000/svg"><g fill="none" fill-rule="evenodd"><path d="M113.6 11.7H81.7c-2.8 0-5-2.3-5-5s2.3-5 5-5h31.9c2.8 0 5 2.3 5 5s-2.2 5-5 5z" fill="#4FC6E0"/><path d="M5.6 67.5c-2.8 0-5-2.3-5-5V6.2c0-2.8 2.3-5 5-5s5 2.3 5 5v56.3c0 2.8-2.2 5-5 5zm33.9 0c-1.3 0-2.6-.5-3.6-1.5l-22-21.9c-2-2-2-5.2 0-7.1 2-2 5.2-2 7.1 0l22 21.9c2 2 2 5.2 0 7.1-.9 1-2.2 1.5-3.5 1.5zM17.6 33.2c-1.3 0-2.6-.5-3.6-1.5-2-2-2-5.2 0-7.1L36 2.7c2-2 5.2-2 7.1 0 2 2 2 5.2 0 7.1l-22 21.9c-1 1-2.3 1.5-3.5 1.5z" fill="#ED2224"/><circle fill="#99CA45" cx="62.1" cy="6.9" r="6.4"/><path d="M62.1 67.5c-2.8 0-5-2.3-5-5v-29c0-2.8 2.3-5 5-5s5 2.3 5 5v29c0 2.8-2.2 5-5 5z" fill="#99CA45"/><path d="M97.7 67.5c-2.8 0-5-2.3-5-5V19c0-2.8 2.3-5 5-5s5 2.3 5 5v43.5c0 2.7-2.2 5-5 5z" fill="#4FC6E0"/><path d="M137.7 37.8c-.8 0-1.5-.2-2.3-.5-6.6-3.3-10.7-10-10.7-17.4 0-10.7 8.7-19.5 19.5-19.5s19.5 8.7 19.5 19.5c0 2.8-2.3 5-5 5s-5-2.3-5-5c0-5.2-4.2-9.4-9.4-9.4s-9.4 4.2-9.4 9.4c0 3.6 2 6.8 5.2 8.4 2.5 1.2 3.5 4.3 2.2 6.8-1 1.7-2.8 2.7-4.6 2.7z" fill="#FFD400"/><path d="M143.3 68.2c-10.7 0-19.5-8.7-19.5-19.5 0-2.8 2.3-5 5-5s5 2.3 5 5c0 5.2 4.2 9.4 9.4 9.4s9.4-4.2 9.4-9.4c0-3.6-2-6.8-5.2-8.4-2.5-1.2-3.5-4.3-2.3-6.8 1.2-2.5 4.3-3.5 6.8-2.3 6.7 3.3 10.8 10 10.8 17.4 0 10.9-8.7 19.6-19.4 19.6zM86.6 54.6h1.3v.6h-1.3v-.6z" fill="#FFD400"/></g></svg>
