<svg id="Ebene_1" data-name="Ebene 1" xmlns="http://www.w3.org/2000/svg" xmlns:xlink="http://www.w3.org/1999/xlink" viewBox="0 0 70.85 26.25"><defs><style>.cls-1{fill:none;}.cls-2{clip-path:url(#clip-path);}.cls-3{fill:#ed2224;}.cls-4{fill:#99ca45;}.cls-5{fill:#4fc6e0;}.cls-6{fill:#ffd400;}</style><clipPath id="clip-path" transform="translate(-17.59 -17.02)"><rect class="cls-1" width="106" height="61.34"/></clipPath></defs><title>KITS_web</title><g class="cls-2"><path class="cls-3" d="M19.53,42.86a1.94,1.94,0,0,1-1.94-1.94V19.24a1.94,1.94,0,1,1,3.88,0V40.93a1.94,1.94,0,0,1-1.94,1.94" transform="translate(-17.59 -17.02)"/><path class="cls-3" d="M32.6,42.86a1.93,1.93,0,0,1-1.37-.57l-8.47-8.44a1.94,1.94,0,1,1,2.74-2.75L34,39.55a1.94,1.94,0,0,1-1.37,3.31" transform="translate(-17.59 -17.02)"/><path class="cls-3" d="M24.13,29.63a1.94,1.94,0,0,1-1.37-3.31l8.47-8.44A1.94,1.94,0,0,1,34,20.62L25.5,29.06a1.94,1.94,0,0,1-1.37.57" transform="translate(-17.59 -17.02)"/><path class="cls-4" d="M43.78,17a2.46,2.46,0,1,0,2.46,2.46A2.46,2.46,0,0,0,43.78,17" transform="translate(-17.59 -17.02)"/><path class="cls-4" d="M43.78,42.86a1.94,1.94,0,0,1-1.94-1.94V29.76a1.94,1.94,0,1,1,3.88,0V40.92a1.94,1.94,0,0,1-1.94,1.94" transform="translate(-17.59 -17.02)"/><path class="cls-5" d="M66.7,21.35H54.42a1.94,1.94,0,0,1,0-3.88H66.7a1.94,1.94,0,0,1,0,3.88" transform="translate(-17.59 -17.02)"/><path class="cls-5" d="M60.56,42.85a1.94,1.94,0,0,1-1.94-1.94V24.17a1.94,1.94,0,1,1,3.88,0V40.91a1.94,1.94,0,0,1-1.94,1.94" transform="translate(-17.59 -17.02)"/><path class="cls-6" d="M78.4,31.5a1.92,1.92,0,0,1-.87-.21,7.53,7.53,0,1,1,10.91-6.74,1.94,1.94,0,1,1-3.88,0,3.65,3.65,0,1,0-5.29,3.27,1.94,1.94,0,0,1-.87,3.67" transform="translate(-17.59 -17.02)"/><path class="cls-6" d="M80.57,43.27A7.54,7.54,0,0,1,73,35.74a1.94,1.94,0,1,1,3.88,0,3.65,3.65,0,1,0,5.28-3.27A1.94,1.94,0,1,1,83.92,29a7.53,7.53,0,0,1-3.35,14.28" transform="translate(-17.59 -17.02)"/></g></svg>